<?xml version="1.0" encoding="utf-8"?>
<!-- Generator: Adobe Illustrator 18.0.0, SVG Export Plug-In . SVG Version: 6.00 Build 0)  -->
<!DOCTYPE svg PUBLIC "-//W3C//DTD SVG 1.1//EN" "http://www.w3.org/Graphics/SVG/1.1/DTD/svg11.dtd">
<svg version="1.1" id="Layer_1" xmlns="http://www.w3.org/2000/svg" xmlns:xlink="http://www.w3.org/1999/xlink" x="0px" y="0px"
	 viewBox="0 0 1400 980" enable-background="new 0 0 1400 980" xml:space="preserve">
<g>
	<rect width="1400" height="980"/>
	<g>
		<path fill="#FDD836" d="M695.4,795.6c-17.2-4.7-21.4-24.1-27.7-38.5c-5-11.5-13.3-20.8-26-23.5c-9.8-2.1-20.1-2-29-7
			c-3.6-2.1-6.8-5-9.8-8c0.7-5,1.7-10,2.1-14.5c1.6-18.6-5.9-30.9-23-37.7c-1.4-0.6-2.7-1.1-4-1.7c11.7-3.8,23-4.3,24.7,7.9
			c0.5,3.7,6.2,2.6,5.7-1.1c-2.7-19.2-22.3-15.5-36.6-10.3c-5.6-3.8-9-8.8-11.8-17.3c-0.3-0.8-0.5-1.6-0.8-2.4
			c9.2-1.2,17.9,0.8,25.2,8.9c2.5,2.8,6.9-1,4.4-3.8c-8.6-9.4-20.2-11.7-31.9-10.1c-2-3.7-4.7-6.9-8.7-8.9
			c-10.7-5.4-21.8-5-27.2-17.4c-0.2-0.5-0.4-1-0.7-1.5c-0.2-4.1-0.9-8-1.7-11.5c-0.2-0.8-0.4-1.6-0.6-2.3c2.8,0,5.7,0,8.6,0.1
			c13.1,0.4,17.7,7.7,21.5,18.8c5.9,17,19,16.4,34.6,14.9c12.8-1.2,23.5,5.5,28.6,17.1c4.5,10.1,1.7,23,0.3,33.5
			c-2.1,16-1.3,33.8,13.3,43.6c3.1,2.1,6.4-2.7,3.3-4.8c-20.9-14.1-7.4-42-9.1-62.1c-1.3-14.8-9.6-29.1-25.2-32.3
			c-9-1.9-17.8,0.4-26.9,0.2c-13.3-0.3-13.4-15.2-18.3-24.1c-6.4-11.6-20.3-10.7-32.8-11.1c-2.4-7.1-5.4-14-7.4-21.2
			c-0.1-0.2-0.1-0.4-0.1-0.5c15.9-3.4,32.2,14.2,42.3,25c2.2,2.4,4.6,4.7,6.9,6.8c-0.1,5.9,0.6,11.7,2.6,17.2c1.3,3.5,6.5,1,5.2-2.5
			c-1.3-3.4-2-6.8-2.4-10.3c8.3,6,17.7,9.7,29,8.8c1.1-0.1,2.2-0.2,3.3-0.3c2.4,2.8,5,5.4,7.7,7.9c7.7,6.9,16,12.2,25.7,15.7
			c0.6,5.8,0.4,11.7,0.7,17.2c0.7,13.4,5.2,27,18.3,32.7c3.4,1.5,5.4-4,2-5.5c-15.9-7-14.8-26-15.9-42.9
			c13.9,4.1,29.8,7.1,28.8,25.7c-1.2,20.6-25.4,37.8-11.6,59.2c2,3.1,7.3,0.6,5.2-2.5c-9.1-14.1,1.6-28.9,7.8-41.7
			c4.6-9.4,6.1-19.8,1.7-29.5c-4.6-10-17.4-13.5-26.9-16c-2-0.5-3.8-1.1-5.7-1.7c-0.5-3.9-1.3-7.5-2.6-10.8
			c-6.3-15-19.4-15.6-32.8-14.2c-11.4-13.3-20-28.7-30.3-42.5c2.7-16.6,2.9-32.6-11.9-45.8c-11.9-10.6-26-13.2-41.4-10.3
			c-9.4,1.7-18.3,5.2-27.4,7.8c-5.6-5.5-12.5-9.5-20.6-11c-13.5-2.5-27,5.5-31.3,18.3c-2.3,6.8-1.2,13.5,1.3,20
			c-6.5,10.4-9.2,23-7.1,36c2.2,14.3,9.6,27.1,10,41.8c0.3,10.6-5.6,22,1.9,31.5c4.5,5.7,10.4,9.4,17,11.7c0.6,1.4,1.4,2.8,2.1,4.1
			c0,2.3,0.1,4.6,0.6,6.9c2,10.1,12.4,15.4,18.6,22.3c8.4,9.3,4,26.3,9,37.5c9.6,21.5,37,24.1,56.8,19.4c9.9-2.3,18.9-7.3,28.4-10.2
			c2.4,13.9-3.9,26.9-7.5,39.9c-4.5,16.2-0.5,38.5,19.7,39.8c3.7,0.3,4.2-5.5,0.5-5.8c-32.8-2.3-5.2-52.2-6.5-69.7
			c-0.1-1.9-0.4-3.8-0.7-5.6c3-0.6,6.1-0.8,9.3-0.7c3.6,20-8.7,41.4-0.7,61.7c8.8,22.3,33.5,14.1,48.7,4.7c3.2-1.9,0.7-7.2-2.5-5.2
			c-12.4,7.6-30.1,16.3-39.9,0.2c-6-10-3.8-22.8-1.8-33.5c1.7-9.2,3.2-17.9,2.1-26.9c1.7,0.5,3.2,1.3,4.6,2.2
			c1.6,4.1,4.1,7.6,7.2,10.4c3.3,10.1,1.7,23.6,0.2,32.4c-0.6,3.7,5.2,4.1,5.8,0.5c1.5-9.1,2.2-19.4,0.5-28.4
			c6.6,3.4,14.4,4.7,21.6,3.3c3.7-0.7,2.6-6.4-1.1-5.7c-9,1.7-17.6-1.1-23.6-7.2c-1.3-2.6-2.9-5-5-7c-0.1-0.2-0.2-0.3-0.3-0.5
			c-2.4-5-2.7-10.6-2.3-16.4c0.1,0.1,0.3,0.3,0.5,0.4c5.8,5.2,11.9,8.9,19.7,10.3c11.3,2.1,23.1,1.9,31.9,10.4
			c6.3,6,9.3,15.3,12.4,23.2c5.1,13.2,12,27.1,26.7,31.2C697,802.1,699,796.6,695.4,795.6z M624.5,620c1.7,2.6,2.7,5.5,3.5,8.5
			c-9.5-4.1-17.5-9.8-25-17.4C611.4,610.3,618.8,610.9,624.5,620z M553.7,642.6c3,7,3.7,15.1,9.8,20.4c0.4,0.4,0.9,0.7,1.3,1.1
			c-0.5,0.2-1.1,0.5-1.6,0.7c-2.6,1.1-5.3,2.3-8,3.5c-4.1-7.4-8.8-14.5-13.5-21.6C545.7,645,549.8,643.6,553.7,642.6z M530.7,678
			c-2.6,0.8-5.1,1.6-7.7,2.2c0.2-1.3,0.3-2.6,0.4-3.9c0.2-7.1-3-12.7-7.5-17.4c3-1.3,6.1-2.8,9.3-4.4c0.1,0.4,0.3,0.8,0.4,1.1
			C528,663,528.8,670.6,530.7,678z M530.4,651.9c2.1-1,4.2-2.1,6.4-3c3.6,5.6,7,11.3,10.3,16.7c1,1.6,1.9,3.3,2.8,5
			c-4.4,1.9-9,3.8-13.5,5.4c-1.2-3.8-2.2-7.9-2.9-12.2C532.7,659.8,531.7,655.8,530.4,651.9z M532.6,683.6c0.4,1,0.8,2,1.2,2.9
			c4.6,9.6,13.5,16.8,21.1,24c1.5,1.4,3,2.9,4.4,4.4c-2.7,4.5-5,9.3-8.6,13.2c-8.1,8.6-21.5,6.8-29.3-0.8
			c-11-10.8-3.4-26.8,0.4-40.8C525.3,685.8,529,684.8,532.6,683.6z M548.9,696.8c-4.8-4.7-8.1-9.8-10.4-15.2
			c4.8-1.8,9.5-3.8,14.1-5.8c4.2,8.6,7.9,17.4,12.8,25.6c0.8,1.3,1.6,2.7,2.5,4c-1.6,0.9-3.2,2.1-4.6,3.7c-0.4,0.4-0.7,0.9-1,1.3
			C558.1,705.9,553.5,701.5,548.9,696.8z M527,625.6c8.5,4.8,18.1,4.3,24,12.1c-2.8,0.7-5.6,1.5-8.3,2.5c-1.4,0.5-2.8,1.1-4.2,1.7
			c-4.4-6.4-8.8-12.5-14.2-17.9C525.1,624.5,526,625,527,625.6z M518.3,626.1c1.2,1,2.3,2.1,3.5,3.3c4.3,4.4,8.2,9.4,11.8,14.7
			c-1.8,0.8-3.5,1.7-5.2,2.6c-1.3-2.9-2.8-5.6-4.6-8.2c-2.2-3.1-4.5-5.9-7.1-8.6C517.2,628.6,517.8,627.4,518.3,626.1z M513.1,634.6
			c4,4.3,7.4,9.2,10,14.7c-3.8,1.9-7.7,3.8-11.7,5.4c-2-1.7-4-3.2-6-4.7c-3.5-2.6-6.5-5.3-8.8-8.3c3.6-0.1,7.3-1,10.7-2.7
			C509.5,637.8,511.4,636.3,513.1,634.6z M558.5,591.8c-8.4-8.2-16.1-17.9-24.6-23.9c-7.6-5.4-17.5-7.8-26.5-6
			c-2.2-8.5-4-16.9-6.9-25.2c0-0.1-0.1-0.2-0.1-0.2c20.6-7,43.2,7,57.4,22.9c1.7,1.9,3.4,4,5,6C561.4,574.1,559.4,583.1,558.5,591.8
			z M591.3,606.4c-11.1,1.4-20.1-3.4-28.2-10.3c0.1-8.5,1.8-17.2,3.4-25.8C575.1,582.1,582.3,595,591.3,606.4z M554,523.5
			c9.7,9.8,11,21.8,9.8,34.4c-5.3-6.5-11.1-12.5-18.1-17.7c-13.5-10.1-31.6-14.1-47.3-9c-1.9-4.2-4.2-8.1-7-11.7
			C513.4,513.3,535,504.3,554,523.5z M488.7,641.4c3.7,6.6,10.2,10.9,16.2,15.5c-12.1,3.7-25.6,4.4-38,2.1
			c2.4-7.4,7.5-14.8,11.9-21.3C481.9,639.6,485.3,640.9,488.7,641.4z M457.5,629.3c-1.2,9.8-3.5,17.4-1.7,26.2
			c-1.9-0.9-3.7-1.9-5.4-3.1c-7.9-5.4-7.7-14-6.3-22.5c1.8-11.2,0.3-20.9-3-31.7c-3.6-11.7-7.7-22.7-6.5-35.2
			c0.5-5.3,2.2-10.3,4.7-14.9c1.1,2.1,2.3,4.2,3.6,6.3c-3.6,11.5-3.5,24.1,0.7,36.2C448.3,604.3,459.4,613.6,457.5,629.3z
			 M460.7,642.3c1.3-11.6,4.6-19.8,0.1-31.2c-4.6-11.7-12.5-20.4-14.6-33.2c-0.9-5.7-0.7-11.5,0.6-17c2.3,3.6,4.5,7.1,6.2,10.4
			c5,9.8,8.1,20.4,10.1,31.1c1.7,9.2,2.2,19.1,7.5,27.2c1.1,1.7,2.4,3.2,3.9,4.6c-2.1,3.4-4.3,6.6-6.3,9.8c-2.6,4.1-4.7,8.3-6,12.8
			C460.7,652.2,460.1,647.3,460.7,642.3z M466.3,665.1c12.9,2.3,27.3,0.5,38.7-2.3c1.6-0.4,3.3-1,5-1.6c3.5,3.4,6.3,7.4,7.4,12.7
			c0.5,2.5,0.5,5,0.3,7.4c-13.6,2.6-27.3,2-40.1-5.6C473,673,469.2,669.4,466.3,665.1z M547.8,746.5c-15.8,5.1-32.9,4.6-46.4-5.8
			c-12.9-10-9.3-25.6-12.8-39.4c-2.9-11.4-14.9-15.7-20.5-25.2c12,10.3,29.9,13.3,45.5,11.7c1-0.1,1.9-0.3,2.9-0.4
			c-3,11.2-9.6,22.2-5.3,33.9c4.8,12.9,16.5,19.9,30.1,17.9c5.7-0.8,11.9-4.6,15.4-9.1c2.4-3.1,4.2-7.1,6.4-10.7
			c4.2,5.3,7.4,11,9.4,17.6C564,739.6,555.8,744,547.8,746.5z M586.6,735.1c-2.9-0.2-5.8,0-8.7,0.6c-2.4-8-6.7-14.6-11.8-20.8
			c1.5-1.8,3.2-3.3,5.2-4.4c4.8,6.6,9.9,13,13.8,20.2c0.8,1.5,1.4,2.9,1.9,4.4C586.9,735.1,586.8,735.1,586.6,735.1z M597.5,737.6
			c-1.3-0.6-2.6-1-4.1-1.4c-0.2-0.7-0.4-1.3-0.6-2c-2.9-9.4-9.4-17.4-15.3-25.2c0,0,0,0,0,0c8.2,0,14.6,6.6,20.3,12.4
			C597.4,727.2,596.9,732.8,597.5,737.6z M598.8,714.4c-1.1-1.1-2.3-2.2-3.4-3.3c-5.6-5.1-14.1-8.6-21.7-7.6
			c-5.8-8.8-10.1-18.2-14.7-27.9c-0.4-0.8-0.7-1.5-1.1-2.2c3.5-1.7,7.9-3.8,12.6-5.8c6,3.1,12.6,5,18.5,8.4
			C601.8,683.3,600.6,699,598.8,714.4z"/>
		<path fill="#FDD836" d="M874.3,367c-26.8,20.7-21,58.5-14.1,87.9c0.9,3.7,6.8,3,5.9-0.7c-6.5-28-13.4-64.8,13.8-84
			c0.6,0.3,1.3,0.7,1.9,1c-15.1,23.2-18.4,52.1-8.9,78.3c1.3,3.6,6.9,1.4,5.5-2.2c-9-24.6-5.7-51.7,8.7-73.4c1.4,0.7,2.9,1.3,4.4,2
			c5.1,30.8,6.9,61.9,5.3,93c-0.2,3.8,5.7,4.7,5.9,0.8c1.6-30.6,0-61.1-4.8-91.3c1.6,0.6,3.2,1.1,4.8,1.6c0,0,0,0.1,0,0.1
			c4.2,25.1,7.1,50.4,8.9,75.9c0.3,3.8,6.2,3.1,5.9-0.7c-1.7-24.6-4.5-49-8.5-73.4c0.2,0,0.3,0.1,0.5,0.1c0.5,0.1,1,0.2,1.4,0.2
			c2.9,0.3,5.5,0.1,7.9-0.4c17.4,16.5,26.9,38.8,27,62.8c0,3.8,5.9,3.1,5.9-0.7c-0.2-24.5-9.8-47.1-26.9-64.4
			c1.7-0.9,3.2-2.1,4.7-3.4c17.2,12.4,27.9,30.9,30.1,52.3c0.4,3.8,6.3,3.1,5.9-0.7c-2.3-22.6-13.8-42.7-31.9-56
			c5.5-7.2,9-17,11.6-25.8c0.2-0.8,0.4-1.6,0.6-2.4c27,17.3,43.2,47.6,43.2,79.7c0,3.8,5.9,3.1,5.9-0.7c0-34.7-18.3-66.7-47.5-85
			c0.2-0.7,0.4-1.5,0.6-2.2c29.6,13.8,52,39,62.3,70.1c1.2,3.7,6.7,1.4,5.5-2.2c-10.9-32.9-35-59.5-66.5-73.8
			c4.8-21.4,7.4-43.5,8.7-65.3c0.7-11.9,0.8-23.5-3.2-34.9c-3.8-11-13.8-19.2-23.2-25.3c-18.2-11.7-40.7-16.2-62.1-13.2
			c-42.5,5.9-73.1,49.6-60.7,91.3C819.5,317.1,843.2,348.1,874.3,367z M822.3,236.1c8-16.9,23.9-28.7,41.5-34
			c17.4-5.2,36.6-2.1,52.9,4.9c9.6,4.1,18.5,10.4,25.1,18.6c7.5,9.3,7.3,22.4,6.8,33.6c-0.9,21.4-3.7,42.6-7.9,63.6
			c-3,15-8.3,52.4-29.6,49.4c-40.4-10.6-69.4-41.3-86.9-78.2C815.1,275,813.2,255.3,822.3,236.1z"/>
		<path fill="#FDD836" d="M905.2,312.9c-1.6-2.2-4.8-2.6-7-1c-2.2,1.6-2.6,4.8-1,7c0.1,0.2,0.3,0.4,0.4,0.5c1.6,2.2,4.8,2.6,7,1
			c2.2-1.6,2.6-4.8,1-7C905.5,313.2,905.3,313,905.2,312.9z"/>
		<path fill="#FDD836" d="M926,298.7c3.9,5.1,11.8-0.9,7.9-6C930.1,287.6,922.2,293.6,926,298.7z"/>
		<path fill="#FDD836" d="M897.9,266c-3.9-5.1-11.8,0.9-7.9,6C893.9,277.1,901.8,271.1,897.9,266z"/>
		<path fill="#FDD836" d="M874.2,287.3c-3.9-5.1-11.8,0.9-7.9,6C870.1,298.4,878,292.4,874.2,287.3z"/>
		<path fill="#FDD836" d="M836,255.1c-0.2,0.1-0.4,0.3-0.5,0.4c-2.2,1.6-2.6,4.8-1,7s4.8,2.6,7,1c0.2-0.1,0.4-0.3,0.5-0.4
			c2.2-1.6,2.6-4.8,1-7C841.4,253.9,838.2,253.5,836,255.1z"/>
		<path fill="#FDD836" d="M875.1,232.6c-3.9-5.1-11.8,0.9-7.9,6C871,243.7,878.9,237.7,875.1,232.6z"/>
		<path fill="#FDD836" d="M904.5,238.5c3.9,5.1,11.8-0.9,7.9-6C908.6,227.4,900.6,233.4,904.5,238.5z"/>
		<path fill="#FDD836" d="M925.7,259.9c3.9,5.1,11.8-0.9,7.9-6C929.7,248.8,921.8,254.8,925.7,259.9z"/>
		<path fill="#FDD836" d="M868.9,318.8c-3.9-5.1-11.8,0.9-7.9,6C864.9,329.9,872.8,323.9,868.9,318.8z"/>
		<path fill="#FDD836" d="M896.2,358c3.9,5.1,11.8-0.9,7.9-6C900.2,346.8,892.3,352.9,896.2,358z"/>
		<path fill="#FDD836" d="M834.5,297.5c3.9,5.1,11.8-0.9,7.9-6C838.5,286.4,830.6,292.4,834.5,297.5z"/>
		<path fill="#FDD836" d="M857.9,274.7c-2.3-3.1-7.1,0.5-4.7,3.6C855.5,281.4,860.3,277.8,857.9,274.7z"/>
		<path fill="#FDD836" d="M867.8,258.1c2.3,3.1,7.1-0.5,4.7-3.6C870.2,251.4,865.5,255,867.8,258.1z"/>
		<path fill="#FDD836" d="M845.1,237c2.3,3.1,7.1-0.5,4.7-3.6C847.6,230.3,842.8,233.9,845.1,237z"/>
		<path fill="#FDD836" d="M881,209.8c-2.3-3.1-7.1,0.5-4.7,3.6C878.6,216.4,883.4,212.8,881,209.8z"/>
		<path fill="#FDD836" d="M904.9,214.9c-2.3-3.1-7.1,0.5-4.7,3.6C902.5,221.6,907.2,218,904.9,214.9z"/>
		<path fill="#FDD836" d="M925.3,235.2c2.3,3.1,7.1-0.5,4.7-3.6c-0.1-0.2-0.3-0.4-0.4-0.5c-2.3-3.1-7.1,0.5-4.7,3.6
			C925,234.9,925.2,235.1,925.3,235.2z"/>
		<path fill="#FDD836" d="M909.4,264.7c2.3,3.1,7.1-0.5,4.7-3.6C911.9,258.1,907.1,261.7,909.4,264.7z"/>
		<path fill="#FDD836" d="M929.5,273.6c-2.3-3.1-7.1,0.5-4.7,3.6C927.1,280.3,931.8,276.7,929.5,273.6z"/>
		<path fill="#FDD836" d="M893.8,289.1c2.3,3.1,7.1-0.5,4.7-3.6C896.2,282.4,891.5,286,893.8,289.1z"/>
		<path fill="#FDD836" d="M913.9,311.2c2.3,3.1,7.1-0.5,4.7-3.6S911.6,308.2,913.9,311.2z"/>
		<path fill="#FDD836" d="M927.7,334.9c-2.3-3.1-7.1,0.5-4.7,3.6C925.3,341.5,930,337.9,927.7,334.9z"/>
		<path fill="#FDD836" d="M886.4,339.6c2.3,3.1,7.1-0.5,4.7-3.6C888.8,332.9,884.1,336.5,886.4,339.6z"/>
		<path fill="#FDD836" d="M881.3,311c2.3,3.1,7.1-0.5,4.7-3.6C883.8,304.3,879,307.9,881.3,311z"/>
		<path fill="#FDD836" d="M876,346.7c2.3,3.1,7.1-0.5,4.7-3.6C878.4,340,873.6,343.6,876,346.7z"/>
		<path fill="#FDD836" d="M912.3,354c2.3,3.1,7.1-0.5,4.7-3.6C914.7,347.4,910,351,912.3,354z"/>
		<path fill="#FDD836" d="M918.5,650.4c-11.3,3.1-16.4,14.4-14.3,26.3c2.4,13.7,19.1,25.3,32.3,25.6c16.1,0.3,20.2-20.8,14.8-32.2
			C945.8,658.6,932.5,641.5,918.5,650.4z M942.1,683.3c0-0.1-0.1-0.1-0.1-0.2c0.1-0.3,0.1-0.7,0.2-1.1
			C942.2,682.5,942.2,682.9,942.1,683.3z"/>
		<path fill="#FDD836" d="M1042.4,697c-15,3.8-30,2.3-43.8-4.4c0.3-1.9,0.6-3.8,0.8-5.7c13.1-1.2,25.7,1.1,37.5,7.1
			c4,2.1,7.6-4,3.6-6.1c-12.8-6.5-26.5-9.3-40.7-8.1c0-4.9-0.5-9.9-1.5-14.8c0-0.2-0.1-0.4-0.1-0.6c15.3,2.5,30.3,0.6,44.9-5.7
			c4.2-1.8,0.6-7.9-3.6-6.1c-14,6-28.8,7.3-43.5,4.1c-0.7-1.8-1.4-3.6-2.2-5.3c9.7,0.1,19.1-3.5,26.6-10.3c3.4-3-1.6-8-5-5
			c-7.2,6.5-16.3,9.2-25.7,7.9c-2.1-3.3-4.5-6.4-7.1-9.3c13.2-6.8,27.2-10.8,42.1-11.9c4.5-0.3,4.5-7.4,0-7
			c-16.8,1.3-32.6,5.9-47.4,13.8c-3.3-2.9-6.8-5.6-10.6-7.9c10.6-10.6,23-18.7,37.1-24c4.2-1.6,2.4-8.4-1.9-6.8
			c-15.9,6-29.9,15.2-41.7,27.3c-1.1-0.6-2.3-1.1-3.5-1.6c5.1-7.4,10.7-14.5,16.7-21.1c3.1-3.3-1.9-8.3-5-5
			c-6.8,7.4-13,15.3-18.6,23.7c-2-0.6-4-1.1-6-1.5c7.4-11.6,11.7-24.5,13-38.3c0.4-4.5-6.6-4.5-7,0c-1.3,13.7-6.1,26.2-13.8,37.4
			c-2.2-0.1-4.3-0.2-6.5-0.1c-1.2-11.2,0.9-22,6.3-32c2.2-4-3.9-7.5-6.1-3.6c-6.2,11.4-8.5,23.6-7.2,36.3c-1.4,0.2-2.9,0.5-4.3,0.9
			c-0.2,0-0.5,0-0.7,0.1c-7.1-16.5-10-33.9-8.7-51.9c0.3-4.5-6.7-4.5-7,0c-1.3,18.4,1.6,36.1,8.6,53c-3.8,0.8-7.4,2-10.7,3.5
			c-5.4-11.3-10-23-13.7-35.1c-1.3-4.3-8.1-2.5-6.8,1.9c3.8,12.5,8.6,24.7,14.3,36.5c-1.7,1-3.3,2.2-4.9,3.4
			c-9.8-10.5-21.2-19.2-34-25.9c-4-2.1-7.6,4-3.6,6.1c12.2,6.3,23,14.5,32.3,24.5c-2.7,2.8-5.1,5.9-7.3,9.2
			c-14.4-3.1-26.9-10.1-36.9-21c-3.1-3.3-8.1,1.6-5,5c10.4,11.3,23.6,18.9,38.4,22.4c-0.4,0.9-0.8,1.8-1.2,2.8
			c-18.7,2.6-37.2,1.4-55.5-3.6c-4.4-1.2-6.2,5.6-1.9,6.8c18.1,4.9,36.3,6.2,54.8,4.1c-1.1,3.8-1.8,7.8-2.2,11.9
			c-15.6,4.4-31.5,3.1-46.1-4.3c-4-2-7.6,4-3.6,6.1c15.6,7.8,32.6,9.8,49.4,5.6c0,2,0.1,3.9,0.3,5.9c-16.3,9.8-34.9,11.6-52.9,5.4
			c-4.3-1.5-6.1,5.3-1.9,6.8c18.8,6.5,38.7,4.8,55.9-4.7c0.8,3.7,2,7.4,3.6,10.9c-11.2,7.1-24,9.1-36.9,5.6
			c-4.4-1.2-6.3,5.6-1.9,6.8c14.4,3.9,29.3,1.8,41.9-6.1c1,1.8,2.2,3.7,3.4,5.4c-16,11.4-28.8,26.3-37.5,44.1
			c-2,4.1,4.1,7.6,6.1,3.6c8.3-17,20.3-31.2,35.7-42c3.1,3.8,6.7,7.3,10.5,10.5c-12.7,10.4-23.2,22.9-31.2,37.3
			c-2.2,4,3.9,7.5,6.1,3.6c7.8-14.2,18.2-26.4,30.8-36.5c1.9,1.4,3.9,2.6,6,3.8c-3.9,17.9-12.2,33.9-24.9,47.4c-3.1,3.3,1.9,8.3,5,5
			c13.1-13.9,22.1-30.5,26.5-49c3.1,1.4,6.2,2.7,9.4,3.7c-3.5,17.9-4.3,36-2.5,54.3c0.5,4.5,7.5,4.5,7,0
			c-1.8-17.7-1.1-35.1,2.2-52.5c3.5,0.7,7,1.2,10.5,1.3c-1.2,16.3,1.7,31.9,8.4,46.9c1.9,4.1,7.9,0.6,6.1-3.6
			c-6.2-13.9-8.6-28.5-7.5-43.5c1.3-0.1,2.7-0.3,4-0.5c5.8,14.9,19.7,25.2,35.9,26.3c4.5,0.3,4.5-6.7,0-7
			c-12.9-0.9-24-9.2-28.9-20.8c3.6-1,7-2.4,10.1-4c3.9,3,8.4,4.9,13.2,6.6c8.8,3.2,21.2,6.8,20,18.6c-0.5,4.5,6.6,4.5,7,0
			c2.2-19.9-20.2-21.4-33.5-29.2c3.2-2.2,6.2-4.8,8.9-7.6c11.1,6.4,23.6,9.3,36.7,8.5c4.5-0.3,4.5-7.3,0-7
			c-11.5,0.8-22.2-1.6-32-6.9c1.9-2.6,3.7-5.3,5.2-8.1c16.4,1.7,31.5,7.3,45.3,16.6c3.8,2.6,7.3-3.6,3.6-6.1
			c-13.9-9.4-29.3-15.1-45.7-17.2c1-2.4,1.8-4.9,2.5-7.4c14.9,6.8,31.1,8.2,47.2,4.2C1048.7,702.7,1046.8,695.9,1042.4,697z
			 M954.2,731.4c-29.6,10.6-63.7-15.3-73.3-42.1c-10.3-28.5,7.5-62.1,38.8-64.1c0,0,0,0,0,0c0.5,0,1-0.1,1.5-0.2
			c27.1-7.2,54.2,11.7,63.8,36.7C995.5,688.8,981.7,721.6,954.2,731.4z"/>
		<path fill="#FDD836" d="M631.4,424.2c12.4-2.4,13-18.6,10.2-28c-3.5-11.6-11.6-20.9-24.1-18.6c-0.5,0-1,0.1-1.5,0.3
			c-0.6,0.1-1,0.4-1.3,0.7C592.2,390.8,606.6,429,631.4,424.2z M618.5,384.2c18.8-4.9,25.1,35.8,7.4,33.5
			C610.4,415.7,602.9,391.4,618.5,384.2z"/>
		<path fill="#FDD836" d="M644.2,370.7c7.3,6.6,17.3,3.9,19.8-5.9c2.3-8.9,3-20.2-4.6-26.7c-7-6-16.7,0.5-20,7.2
			c-0.2,0.4-0.3,0.7-0.3,1C636.4,354.5,637.5,364.7,644.2,370.7z M645.5,348.4c0.1-0.2,0.1-0.3,0.1-0.5c0,0,0,0,0,0
			c2.2-4.4,7.5-7.4,11.3-2.8c3.2,3.9,1.7,11,1.1,15.5c-0.3,2.5-1.1,4.7-3,6.4c-3,2.8-6.6-1.5-8.1-3.5
			C643.8,359.3,643.7,353.3,645.5,348.4z"/>
		<path fill="#FDD836" d="M680.7,315.4c3.7-9.6-6.4-15.7-14.3-18.3c-9.4-3-19.6-1-27.7,4.3c-1.3,0.9-1.6,2.1-1.3,3.2
			c0,0.3-0.1,0.7,0,1c1.6,9.8,5.2,19.6,16.6,20.1c4.7,0.2,9.5-1.8,13.9-3.4C671.6,321.1,679,319.8,680.7,315.4z M644.3,306
			c9.2-5.1,22.1-4.8,29.6,3.2c3.6,3.9-12.9,8.6-14.6,9.2C649.3,321.5,645.8,314.2,644.3,306z"/>
		<path fill="#FDD836" d="M645.1,278.9c11.9,6.8,23.1,0.6,31.9-7.9c3.5-3.4,6.3-6.3,5.9-11.4c-0.4-5-6.8-8.1-10.6-9.9
			c-11.4-5.3-24.9-3.4-35.5,2.6c-1,0.6-1.4,1.4-1.5,2.2C627.7,263.9,636.4,274,645.1,278.9z M641,257.9c0.2-0.2,0.3-0.4,0.5-0.7
			c5.9-3.1,12.2-4.3,18.9-3.7c4.5,0.4,20,4.2,13.5,11.2c-4.9,5.2-11,10.5-18.5,10.4C648.1,275,634,265.9,641,257.9z"/>
		<path fill="#FDD836" d="M594.4,242.7c-6.7,8.3-4.3,18.6,2,26.3c4.3,5.4,17.1,14.1,22.6,4.8c5.2-8.7,4.3-21.4-1-29.8
			c-5-8.1-15.9-9-22.4-2.5c-0.2,0.2-0.3,0.4-0.4,0.5C594.9,242.2,594.6,242.4,594.4,242.7z M599.7,246.9c0.2-0.2,0.3-0.4,0.4-0.6
			c0.3-0.2,0.5-0.3,0.8-0.6c4.9-4.9,10.8,0.2,13,4.8c2.1,4.5,1.7,10.1,1.2,14.8c-1.2,12.7-12.2,1.2-14.7-1.9
			C596.6,258.5,595.6,251.9,599.7,246.9z"/>
		<path fill="#FDD836" d="M594.4,351.9c3.8,0.9,7.4-2.4,9.7-4.8c4.5-4.6,10.7-9.3,13.5-15.2c3.7-7.7,1-18.3-8.4-20.1
			c-0.5-0.1-1-0.1-1.5,0c-10.5,0.6-19,6.9-22.6,16.8C582,337.5,584.4,349.5,594.4,351.9z M608.6,318.6c8.2,1.8,2.2,11.9-0.9,15.3
			c-2.6,2.9-12.5,16.1-16.3,7.4C586.3,329.7,598.2,319.3,608.6,318.6z"/>
		<path fill="#FDD836" d="M569.1,354.8c-8.8,6.1-15,16.3-14.7,27.3c0.2,8.9,5.3,17.9,14.9,12.2c7.6-4.5,17.9-21.5,16.3-30.6
			C584.3,356.5,576.1,349.3,569.1,354.8z M575.6,374.9c-2.3,5-6.1,10.4-10.4,14c-4.5,3.8-4.1-9-4.1-9c0.1-2.7,1-5.2,1.9-7.7
			c1.9-5.1,5.6-9,10-12c3.7-0.9,5.6,1,5.7,5.9C578.7,369,576.8,372.4,575.6,374.9z"/>
		<path fill="#FDD836" d="M565.9,321.7c11.3,4.9,20.6-12.7,23.8-20.4c4.7-11.4,1-24.4-9.4-30.6c-0.4-0.5-1-0.9-1.8-1
			c-0.8-0.2-1.6-0.1-2.2,0.3c-11.8,2.7-20.1,9.7-23.3,21.7C550,302.7,555.2,317.1,565.9,321.7z M559.6,292.6c1.5-9,9.6-14.1,17.7-16
			c16.6,10-0.3,45.4-11.9,37.1C559.1,309.3,558.5,299.3,559.6,292.6z"/>
		<path fill="#FDD836" d="M561.1,247.3c10.3,5.9,22.8-0.7,29.8-8.8c6.2-7.2,4.9-19-3.2-23.8c-0.3-0.7-0.9-1.2-1.9-1.5
			c-11.1-3.2-22.6-1.3-29.7,8.5C550.4,229.7,552.4,242.4,561.1,247.3z M562.7,224.2c4.3-5.9,12.4-6.6,19-5.2
			c0.3,0.4,0.7,0.7,1.3,0.9c15.6,5.8-5.7,26.7-17.7,22.1C557.8,239.2,559,229.3,562.7,224.2z"/>
		<path fill="#FDD836" d="M534.5,269.8c-0.1,0-0.1,0-0.2,0c-7.5-0.5-18.5-0.4-22.1,8c-3.5,8-0.6,17.9,5.8,23.6
			c6.1,5.5,15.1,1.9,19.8-3.1c6.7-7.1,4.3-18.7,0.7-26.5C537.7,269.8,536,269.4,534.5,269.8z M535.3,287c-0.3,6.3-6.6,13-13.1,9
			c-4-2.5-5-9.2-4.5-13.4c0.7-7,10.7-6.5,15.6-6.2C534.6,279.8,535.5,283.2,535.3,287z"/>
		<path fill="#FDD836" d="M524.9,262.5c21-1.6,16.3-38.1-2.2-40.2c-0.8-0.7-1.9-0.9-3.1-0.2c-9.4,5.1-15.7,13.7-14.5,24.7
			C506.1,256.8,515.3,263.2,524.9,262.5z M521.4,228.8c0.2,0,0.4,0.1,0.6,0.1c5.8,0,8.8,8,9.9,12.6c1.4,6-1.2,13-7.7,14.4
			c-6.4,1.3-11.2-4.2-12.3-9.9C510.4,238.7,515.5,232.3,521.4,228.8z"/>
		<path fill="#FDD836" d="M525.5,338.2c-0.7,8.8,5.2,18,14.3,19.1c9.9,1.2,13.1-11.2,14.9-18.3c2.1-8.3-1.2-19.3-11.2-19.7
			c-1,0-1.8,0.3-2.4,0.8C532.5,322.3,526.3,329.1,525.5,338.2z M544.1,326.1c9.5,2.7,2.6,26.5-5.3,24.1c-5.2-1.5-6.8-8-6.4-12.7
			c0.5-5.9,5.6-10.2,11.1-11.3C543.7,326.3,543.9,326.2,544.1,326.1z"/>
		<path fill="#FDD836" d="M519.9,354.9c-10.1-0.3-20.6,4.8-25.1,14.2c-4.5,9.4-3.2,24.5,9.3,26.8c12.7,2.4,26.2-4.1,31.8-15.7
			c5.4-11.1-2-24.2-14-25.6C521.1,354.4,520.4,354.6,519.9,354.9z M528,380.6c-4.1,6.5-13.3,9.4-20.7,9.1c-11.5-0.5-9-14.5-4.6-20.5
			c4.2-5.7,11.7-8.1,18.5-7.4c0.6,0.1,1.1,0,1.6-0.2C531.4,363.7,532.5,373.5,528,380.6z"/>
		<path fill="#FDD836" d="M478.9,319.4c-5.1,6.4-0.7,15.5,4.3,20.3c5.7,5.3,15.3,5.1,20.8-0.3c5.9-5.8,5.4-15.4-1.4-20.3
			c0,0,0,0,0,0c-0.3-0.6-0.8-1.2-1.6-1.5C493.6,314.3,484.7,312.1,478.9,319.4z M499.7,334.2c-3.1,4-9,2.6-12.4,0.1
			c-3.6-2.7-5.6-9-1.8-12.2c3.2-2.7,8.6-0.3,12.1,1.3c0.2,0.3,0.5,0.7,0.9,1C501.9,326.9,502.3,330.9,499.7,334.2z"/>
		<path fill="#FDD836" d="M493.4,303.1c8-3.9,11.2-14,4.4-20.6c-5.3-5.2-15-10.1-22.6-7.6c-0.3,0.1-0.6,0.2-0.9,0.3
			c-0.3,0.1-0.6,0.3-0.8,0.5c-7.3,4.4-10.4,14-5.3,21.5C473.9,305.5,484.5,307.5,493.4,303.1z M476.8,281.5
			c6.8-2.9,23.7,6.6,15.7,14.2c-4.1,3.9-11.1,4-15.7,1C471.4,293.2,470.7,284.7,476.8,281.5z"/>
		<path fill="#FDD836" d="M628.4,403.9c4.5-5.7-4.4-12.6-8.8-6.9C615.1,402.7,623.9,409.6,628.4,403.9z"/>
		<path fill="#FDD836" d="M656.5,356.1c4.5-5.7-4.4-12.6-8.8-6.9C643.2,354.9,652.1,361.8,656.5,356.1z"/>
		<path fill="#FDD836" d="M657.9,305.2c-2.4-1.9-6-1.4-7.9,1c-0.1,0.1-0.2,0.3-0.3,0.4c-1.9,2.4-1.4,6,1,7.9c2.4,1.9,6,1.4,7.9-1
			c0.1-0.1,0.2-0.3,0.3-0.4C660.8,310.7,660.3,307.1,657.9,305.2z"/>
		<path fill="#FDD836" d="M661.2,270.1c4.5-5.7-4.4-12.6-8.8-6.9C647.9,268.8,656.8,275.8,661.2,270.1z"/>
		<path fill="#FDD836" d="M604.8,334.9c4.5-5.7-4.4-12.6-8.8-6.9C591.5,333.7,600.3,340.6,604.8,334.9z"/>
		<path fill="#FDD836" d="M563.4,372.3c-4.5,5.7,4.4,12.6,8.8,6.9C576.7,373.5,567.9,366.6,563.4,372.3z"/>
		<path fill="#FDD836" d="M577.6,298.6c4.5-5.7-4.4-12.6-8.8-6.9C564.3,297.4,573.2,304.3,577.6,298.6z"/>
		<path fill="#FDD836" d="M613.2,263.1c4.5-5.7-4.4-12.6-8.8-6.9C599.9,261.9,608.8,268.8,613.2,263.1z"/>
		<path fill="#FDD836" d="M580.9,233.5c4.5-5.7-4.4-12.6-8.8-6.9C567.6,232.3,576.4,239.2,580.9,233.5z"/>
		<path fill="#FDD836" d="M527.1,247.7c4.5-5.7-4.4-12.6-8.8-6.9C513.8,246.5,522.6,253.4,527.1,247.7z"/>
		<path fill="#FDD836" d="M531.3,282.3c-2.4-1.9-6-1.4-7.9,1c-0.1,0.1-0.2,0.3-0.3,0.4c-1.9,2.4-1.4,6,1,7.9s6,1.4,7.9-1
			c0.1-0.1,0.2-0.3,0.3-0.4C534.1,287.8,533.7,284.2,531.3,282.3z"/>
		<path fill="#FDD836" d="M482.9,292.2c4.5-5.7-4.4-12.6-8.8-6.9C469.7,291,478.5,297.9,482.9,292.2z"/>
		<path fill="#FDD836" d="M497.4,325.6c-0.1-0.1-0.3-0.2-0.4-0.3c-2.4-1.9-6-1.4-7.9,1c-1.9,2.4-1.4,6,1,7.9
			c0.1,0.1,0.3,0.2,0.4,0.3c2.4,1.9,6,1.4,7.9-1C500.2,331.1,499.8,327.5,497.4,325.6z"/>
		<path fill="#FDD836" d="M546.3,340.4c4.5-5.7-4.4-12.6-8.8-6.9C533.1,339.2,541.9,346.1,546.3,340.4z"/>
		<path fill="#FDD836" d="M510.8,373.1c-4.5,5.7,4.4,12.6,8.8,6.9C524.1,374.3,515.2,367.4,510.8,373.1z"/>
		<path fill="#FDD836" d="M212.5,285.8c-0.4-0.5-0.8-0.7-1.3-0.8c-5.1-3.7-12.8-2.6-16.5,2.9c-4.5,6.6-5.3,18.2,0.2,24.5
			c5.3,6.1,14.1,5,18.8-1.4C219.4,303.4,218.4,293.1,212.5,285.8z M212.4,303.9c-1.6,6.4-9.9,11.9-14.5,4.9
			c-2.6-3.8-2.5-9.4-1.6-13.7c1.1-5.3,7.7-10.9,12.7-6.1c0.2,0.2,0.4,0.3,0.5,0.4C212.8,293.7,213.7,298.7,212.4,303.9z"/>
		<path fill="#FDD836" d="M242.3,286.4c-6-2.1-11.6,1.6-12.4,7.8c-0.9,6.6,6.3,9.9,11.5,11.3c6,1.6,12.1,0.6,12.4-6.7
			C254.1,292.1,247.8,288.1,242.3,286.4z M248.8,300.9c-0.9,1.8-4.7,0.6-6,0.3c-2.8-0.7-6.1-1.6-7.8-4.1c-2.7-4,2-7.7,5.8-6.4
			c3.1,0.9,6.1,2.3,7.8,5.1C249.5,297.2,249.6,299.4,248.8,300.9z"/>
		<path fill="#FDD836" d="M233.8,271.7c6.4,0.4,9.7-5.2,9.2-10.9c-0.6-7-8.1-10.6-13.8-12.8c-0.3-0.1-0.6-0.2-0.8-0.2
			c-0.3-0.1-0.7-0.2-1.1-0.2c-6.4,0.7-9.7,7.2-8.4,13.1C220.4,267.2,227.7,271.3,233.8,271.7z M227.7,252.2c0.1,0,0.1,0.1,0.2,0.1
			c3.6,1.4,7.5,3,9.7,6.3c2.3,3.4,1.1,8.3-3.4,8.6c-3.9,0.2-8-2.6-10-5.8C221.8,257.8,223.6,253,227.7,252.2z"/>
		<path fill="#FDD836" d="M271.9,239.5c6.5-3,8.9-9.9,6.2-16.4c-2.5-6.1-11.2-7.9-16.8-5.4c-7.2,1.3-8.5,9.6-6,15.4
			C258,239.2,265.9,242.3,271.9,239.5z M260.8,233.2c-2.9-3-3.6-10.2,1.6-11.1c-3.6,1.7-1.9,8,2.5,7.1c4.8-1,3.2-8.4-1.5-7.4
			c0,0,0,0,0.1,0c7.8-3.5,15.5,6.1,8.7,12.4C268.8,237.2,263.7,236.1,260.8,233.2z"/>
		<path fill="#FDD836" d="M287.8,274c-3.9-6.2-10.3-13.3-18.2-8.8c-7.2,4.1-4.9,16-2.9,22.2c2,6.1,10,13,16.7,9
			c8.5-5.1,7.4-13.3,4.7-21.4C288.1,274.7,288,274.4,287.8,274z M285.5,287.2c-1,4.1-4.9,6.3-8.9,5.2c-3.4-1-5.1-4.7-6.1-7.7
			c-1.1-3.3-1.3-7.2-1.1-10.7c0.4-5.9,6.7-6.5,10.5-3.2c1.6,1.4,2.7,3.4,3.9,5.3C285,279.8,286.5,283.2,285.5,287.2z"/>
		<path fill="#FDD836" d="M220.2,339c5.3,3.9,11.4-2.4,13.8-6.6c2.1-3.6,4.3-11.9-0.5-14.6c-0.1-0.1-0.3-0.1-0.4-0.2
			c0,0-0.1-0.1-0.1-0.1C221.5,311.9,210,331.5,220.2,339z M222.5,325.6c1.8-3.3,5.1-5.4,8.7-4c1.5,1,0.3,5.4-0.3,6.9
			c-0.9,2.6-4.7,8.4-8.2,6.7C219.1,333.4,221.1,328.1,222.5,325.6z"/>
		<path fill="#FDD836" d="M241.7,355.9c-0.2-0.2-0.4-0.3-0.6-0.4c-6.7-3-17.5-5.5-20.9,3.6c-2.9,7.7,0.9,15.8,8,19.5
			c6.4,3.4,13.9,0.8,18.1-4.7C250.7,368.1,247.8,359.2,241.7,355.9z M242.5,371.5c-2.7,4.5-8.8,5-13,2.8c-4.5-2.4-6.7-7.7-5.5-12.6
			c1.8-7,9.9-4.4,14.7-2.3c0.1,0.1,0.2,0.1,0.3,0.2C243.5,361.9,245.1,367.1,242.5,371.5z"/>
		<path fill="#FDD836" d="M176.8,419.5c-2.8-1.1-5.2-2.6-8.3-2.6c-3,0-5.9,1.5-8.2,3.3c-4.9,3.9-4.4,11.2-0.1,15.1
			c4.6,4.3,11.5,4,16.4,0.6c5.3-3.7,5.2-11.3,1.2-15.8C177.5,419.8,177.1,419.6,176.8,419.5z M173.5,432.5c-3,2.7-8,1.5-10.7-1
			c-3.8-3.5-0.1-8.5,3.7-9.8c3-1.1,5.5,0.5,8.2,1.7C177.1,426.5,176.4,430,173.5,432.5z"/>
		<path fill="#FDD836" d="M203,369.6c-0.2-0.1-0.5-0.2-0.8-0.3c-6-1.1-16.6,0.6-18.8,7.6c-2.3,7.1,4.9,11.2,10.8,12.7
			c6.6,1.7,13.2-1.4,15.9-7.6C212.5,376.5,208.2,370.8,203,369.6z M203.5,383.6c-2.9,2.7-7.3,2-10.7,0.9c-1.7-0.6-3.3-1.6-4.6-2.8
			c-2.9-2.8,1.3-5.4,2.9-6.4c3.2-1.9,6.9-2,10.5-1.4c0.2,0.1,0.4,0.2,0.6,0.2C207.5,375,206.4,380.9,203.5,383.6z"/>
		<path fill="#FDD836" d="M187.6,329.6c-2.2-7.2-9.7-11.5-16.9-11.7c-1.2,0-2,0.7-2.2,1.7c-0.3,0.2-0.6,0.4-0.8,0.8
			c-4,5.9-5.3,13.8-2.5,20.5c2.9,6.8,8.9,12.3,16.4,8.5C188.4,345.9,189.6,336,187.6,329.6z M180.5,344.5c-6,6.7-11-4.5-11.9-8.2
			c-1.1-4.7,0.3-9.6,2.9-13.5c0.1-0.1,0.1-0.2,0.1-0.3C182.3,323.7,188.2,335.9,180.5,344.5z"/>
		<path fill="#FDD836" d="M232.9,363.9c-4.8,1-3.2,8.4,1.5,7.4C239.2,370.3,237.7,362.9,232.9,363.9z"/>
		<path fill="#FDD836" d="M228.8,399.8c-4.8,1-3.2,8.4,1.5,7.4C235.2,406.2,233.6,398.8,228.8,399.8z"/>
		<path fill="#FDD836" d="M197.1,377.1c-4.8,1-3.2,8.4,1.5,7.4C203.4,383.5,201.9,376.2,197.1,377.1z"/>
		<path fill="#FDD836" d="M174.5,329.8c-4.8,1-3.2,8.4,1.5,7.4C180.8,336.2,179.3,328.8,174.5,329.8z"/>
		<path fill="#FDD836" d="M203.3,290.3c-0.1,0-0.2,0.1-0.4,0.1c-2,0.4-3.3,2.5-2.9,4.5c0.4,2,2.5,3.3,4.5,2.9c0.1,0,0.2-0.1,0.4-0.1
			c2-0.4,3.3-2.5,2.9-4.5C207.3,291.2,205.3,289.9,203.3,290.3z"/>
		<path fill="#FDD836" d="M241.3,291.6c-4.8,1-3.2,8.4,1.5,7.4C247.6,298,246.1,290.6,241.3,291.6z"/>
		<path fill="#FDD836" d="M271.4,323.1c-4.8,1-3.2,8.4,1.5,7.4C277.7,329.5,276.2,322.1,271.4,323.1z"/>
		<path fill="#FDD836" d="M276.7,278.4c-4.8,1-3.2,8.4,1.5,7.4C283,284.8,281.5,277.4,276.7,278.4z"/>
		<path fill="#FDD836" d="M229.4,262.4c0.1,0,0.2-0.1,0.4-0.1c2-0.4,3.3-2.5,2.9-4.5c-0.4-2-2.5-3.3-4.5-2.9c-0.1,0-0.2,0.1-0.4,0.1
			c-2,0.4-3.3,2.5-2.9,4.5C225.4,261.5,227.4,262.9,229.4,262.4z"/>
		<path fill="#FDD836" d="M155.1,377.1c4.8-1,3.2-8.4-1.5-7.4C148.8,370.7,150.3,378.1,155.1,377.1z"/>
		<path fill="#FDD836" d="M168.2,423.3c-4.8,1-3.2,8.4,1.5,7.4C174.5,429.7,173,422.3,168.2,423.3z"/>
		<path fill="#FDD836" d="M198,436.7c-4.8,1-3.2,8.4,1.5,7.4C204.3,443.1,202.8,435.7,198,436.7z"/>
		<path fill="#FDD836" d="M143.5,447c-4.8,1-3.2,8.4,1.5,7.4C149.8,453.4,148.2,446,143.5,447z"/>
		<path fill="#FDD836" d="M375.5,252.4c-20.3-6.6-41.3-10.2-62.5-10.7c-0.1-1.2-0.3-2.4-0.5-3.6c-0.3-1.7-0.6-3.4-1-5
			c20.1,1.2,40.1,0,59.9-3.6c2.9-0.5,1.9-5-0.9-4.4c-20,3.7-40.1,4.8-60.4,3.4c-0.7-1.9-1.5-3.7-2.4-5.5c15.5,0.3,30.4-3.7,43.7-12
			c2.5-1.5,0.4-5.6-2.1-4c-13.5,8.4-28.6,12.3-44.4,11.4c-2.4-3.6-5.4-6.7-8.8-9.2c11.2-10.2,24.6-16.6,39.6-18.9
			c2.9-0.4,1.9-4.9-0.9-4.4c-16.2,2.5-30.8,9.7-42.7,20.9c-3.2-1.7-6.7-2.8-10.6-3.2c4.7-10.2,11.3-19.3,19.5-27.1
			c2.1-2-0.9-5.4-3-3.4c-8.3,7.8-14.9,16.9-19.8,27.1c3-14.3,8.9-27.6,17.6-39.6c1.7-2.4-2.1-4.8-3.8-2.5
			c-10,13.8-16.4,29.3-19.1,46c-1.4,0.1-2.8,0.3-4.2,0.5c-1.5-16.2,1.2-32,7.7-46.9c1.2-2.7-3.1-4.1-4.3-1.4
			c-6.8,15.6-9.4,32.2-7.9,49.2c-0.2,0-0.4,0.1-0.6,0.1c-2.9-16.4-4.7-32.9-5.4-49.5c-0.1-2.9-4.6-3.2-4.5-0.3
			c0.7,15.8,2.3,31.4,4.8,47c-4.1-13-12.8-23.8-25-30.5c-2.5-1.4-5,2.4-2.5,3.8c12.5,6.9,21.1,18.2,24.2,32.1
			c-4.7,1.7-9.2,3.9-13.5,6.5c-4.2-10.3-12.4-18-21-25.1c0.5-6.7,1.3-13.3,2.4-20c0.5-2.9-4-3.1-4.5-0.3c-1,5.6-1.7,11.2-2.2,16.8
			c-2.3-1.9-4.7-3.7-6.9-5.6c-2.3-1.9-4.7,2-2.5,3.8c2.9,2.4,6,4.8,9,7.2c-0.8,13.9,0,27.8,2.2,41.6c-0.9,0.9-1.8,1.8-2.7,2.7
			c-7.8-17.4-12.8-35.7-15-54.7c-0.3-2.9-4.8-1.9-4.4,0.9c2.3,20,7.7,39.2,16.1,57.4c-1.4,1.5-2.8,3.1-4.1,4.6
			c-4.6-18.4-14.4-34.9-28.4-47.9c-2.1-2-5.5,1-3.4,3c14.4,13.3,24,30.1,28.1,49.2c-1.3,1.6-2.6,3.1-3.8,4.7
			c-9.8-11-16.4-24.1-19.4-38.7c-0.6-2.9-5-1.9-4.4,0.9c3.2,15.6,10.4,29.7,21,41.4c-3.2,4.2-6.3,8.4-9.2,12.5
			c-6.4-18.8-15.7-36.2-28-52c-1.8-2.3-5.1,0.7-3.4,3c12.6,16.1,22,34.1,28.1,53.6c-0.1,0.1-0.2,0.2-0.2,0.3
			c-1.2,1.7-2.4,3.5-3.5,5.2c-6.5-12.4-16.7-22.3-29.5-28.6c-2.6-1.3-5.1,2.5-2.5,3.8c12.9,6.3,22.9,16.3,29.1,29.2
			c-3,4.7-5.9,9.5-8.7,14.3c-18.3-10.3-31.4-27.5-36.2-48c-0.7-2.8-5.1-1.9-4.4,0.9c5.1,21.7,18.9,40.2,38.4,51
			c-0.8,1.5-1.6,2.9-2.4,4.4c-16.4-12.8-35.4-21-55.9-24.4c-2.9-0.5-3.1,4-0.3,4.5c19.9,3.3,38.2,11.6,54,24c-1.6,3-3.2,6.1-4.7,9.1
			c-9.7-9.8-21.3-17.2-34.4-21.5c-2.8-0.9-4.2,3.4-1.4,4.3c13,4.3,24.4,11.6,33.8,21.5c-0.2,0.5-0.5,1-0.7,1.5
			c-11.4-3.8-23.2-5.6-35-5.6c-3.7-5.1-7-10.6-10.1-15.9c-1.5-2.5-5.5-0.5-4,2.1c2.7,4.7,5.6,9.4,8.8,14c-15,0.8-29.8,4.5-43.6,11.3
			c-2.6,1.3-0.6,5.3,2.1,4c14.1-6.9,29.3-10.6,44.7-10.9c7.3,9.6,16.1,17.6,28.1,20.9c-2.5,5.8-4.9,11.6-7.2,17.4
			c-16.9-2.8-31.9-11.2-43.3-24.1c-1.9-2.2-5.3,0.8-3.4,3c11.8,13.4,27.4,22.1,44.9,25.3c-2.5,6.4-4.9,12.9-7.2,19.4
			c-13.3-10.6-28.6-17.8-45.3-21.2c-2.8-0.6-4.3,3.7-1.4,4.3c16.7,3.5,31.9,10.8,45.2,21.5c-0.2,0.5-0.4,1.1-0.6,1.6
			c-25.8-1-50.3-9.8-70.9-25.5c-2.3-1.8-4.8,2-2.5,3.8c20.8,15.9,45.8,25,71.9,26.2c0,0.1-0.1,0.2-0.1,0.2
			c-16.4,1.2-32.5-1.2-47.9-6.9c-2.7-1-4.2,3.3-1.4,4.3c15.5,5.7,31.5,8,47.9,7.2c-1.9,6.2-3.4,12.5-4.2,18.8
			c-18.5,1.1-36.7-2.2-53.8-9.3c-2.7-1.1-4.1,3.2-1.4,4.3c17.5,7.3,36,10.5,54.8,9.6c-0.1,1.3-0.2,2.5-0.2,3.8
			c-12.6,1.3-25.1,3.3-37.6,6c-2.9,0.6-1.9,5.1,0.9,4.4c12.1-2.6,24.4-4.6,36.7-5.9c0.2,3.6,0.6,7.2,1.5,10.8
			c-17.9,7.7-34.3,18.2-48.7,31.4c-2.2,2,0.9,5.3,3,3.4c13.9-12.7,29.7-22.8,46.9-30.4c0.9,2.6,1.9,5,3.2,7.2
			c-20.3,13-35.9,31.7-45.1,54.1c-1.1,2.7,3.2,4.1,4.3,1.4c8.8-21.4,23.8-39.3,43.3-51.7c1.5,2.1,3.2,4,5,5.8
			c-9.9,12.2-17.8,25.7-23.5,40.3c-1.1,2.7,3.2,4.1,4.3,1.4c5.5-14.1,13.1-27.1,22.6-38.9c1.2,0.9,2.5,1.7,3.9,2.5
			c-3.9,12.6-9.2,24.6-16,36c-1.5,2.5,2.3,5,3.8,2.5c6.9-11.5,12.4-23.6,16.3-36.4c2.4,1,5,1.8,7.7,2.3
			c-0.9,19.6-5.1,38.6-12.3,56.8c-1.1,2.7,3.2,4.1,4.3,1.4c7.4-18.5,11.5-37.8,12.5-57.6c0.1,0,0.3,0,0.4,0.1
			c3.7,0.3,7.3,0.1,10.8-0.5c3.5,19.8,5.4,39.9,5.6,60c0,2.9,4.6,3.2,4.5,0.3c-0.2-20.6-2.2-41-5.7-61.3c2.9-0.8,5.7-1.9,8.4-3.1
			c11.5,20.7,28.9,37,50.3,47.1c2.6,1.2,4-3.1,1.4-4.3c-20.3-9.6-36.9-25.3-47.7-44.9c2.6-1.4,5.1-3,7.5-4.8
			c14.6,5.8,27.4,14.6,38,26.3c2,2.2,5.3-0.9,3.4-3c-10.4-11.5-23-20.4-37.2-26.4c2-1.6,4-3.3,5.9-5.1c19.5,2.3,37.9,9,54.3,19.8
			c2.4,1.6,4.9-2.2,2.5-3.8c-16-10.5-33.8-17.2-52.7-20c3-3,5.9-6.1,8.7-9.3c9.4,1.2,18.7,1.2,27.9-0.1c9.5,7.2,18.6,15,27.2,23.4
			c2.1,2,5.5-1,3.4-3c-7.8-7.6-16-14.7-24.5-21.4c6.6-1.3,13.1-3.2,19.5-5.8c2.7-1.1,0.6-5.1-2.1-4c-7.3,2.9-14.7,4.9-22.3,6.1
			c-5.2-3.9-10.6-7.7-16.1-11.3c2.2-2.9,4.4-5.9,6.5-8.8c17.8,2.3,35,7.4,51.1,15.4c2.6,1.3,5.1-2.5,2.5-3.8
			c-16-8-33-13.3-50.6-15.8c0.8-1.1,1.6-2.3,2.3-3.4c22,2,43.5,6.4,64.5,13.1c2.8,0.9,4.2-3.4,1.4-4.3
			c-20.6-6.6-41.6-10.9-63.1-13.1c1-1.4,1.9-2.9,2.9-4.3c0,0,0-0.1,0.1-0.1c17.9,2.9,35.9,2,53.4-2.7c2.8-0.8,1.9-5.2-0.9-4.4
			c-16.4,4.4-33.1,5.4-49.8,3c1.8-2.8,3.6-5.6,5.4-8.5c17.9-3,35.9-2.7,53.6,0.9c2.8,0.6,4.3-3.7,1.4-4.3c-17.2-3.5-34.6-4.1-52-1.7
			c2.5-4.1,5-8.2,7.5-12.4c23.1-4.4,46.7,0.4,66.3,13.6c2.4,1.6,4.9-2.2,2.5-3.8c-19.4-13.1-42.8-18.3-65.7-14.9c0.6-1,1.2-2,1.8-3
			c21.3-4,42.9-2.1,63.3,5.7c2.7,1,4.2-3.3,1.4-4.3c-19.8-7.6-41-9.7-61.8-6.5c1.8-3.1,3.6-6.2,5.4-9.3c21.7-7.5,45.1-6.7,66.4,1.9
			c2.7,1.1,4.1-3.2,1.4-4.3c-20.7-8.4-43.2-9.4-64.5-3.3c1.6-2.8,3.2-5.6,4.8-8.4c21.6-11.9,46.8-14.9,70.6-8.1
			c2.8,0.8,4.2-3.5,1.4-4.3c-22.8-6.5-46.9-4.6-68.2,5.3c1.2-2.3,2.4-4.6,3.6-6.9c20.5-7.6,39.5-18,57-31c0.4-0.3,0.6-0.6,0.7-1
			c2.5,0.3,5,0.7,7.5,1.2c2.8,0.6,4.3-3.7,1.4-4.3c-17.9-3.5-35.7-2.8-53,2.3c1-3.3,1.9-6.7,2.7-10.1c18.9-0.6,37.7,0,56.5,2
			c2.9,0.3,3.2-4.2,0.3-4.5c-18.6-1.9-37.2-2.6-55.9-2c0.8-4.3,1.3-8.7,1.6-13.1c17.2,5.8,35.3,7.3,53.3,4.4
			c2.9-0.5,1.9-4.9-0.9-4.4c-17.7,2.8-35.4,1.2-52.2-4.7c0.1-3,0-6.1-0.2-9.1c20.7,0.6,41,4.1,60.7,10.5
			C376.9,257.6,378.3,253.3,375.5,252.4z M306,250.9c-3,0.3-6-0.4-8.2-2.1c0.6,0.2,1.3,0.3,2,0.1c4.8-1,3.2-8.4-1.5-7.4
			c-2.5,0.5-3.2,2.8-2.7,4.7c-0.4-0.7-0.7-1.5-1-2.3c-1.6-5.8,4.2-11.1,9.5-8.6C305.3,240.3,305.9,245.7,306,250.9z M220.6,194.9
			c7.3,6.2,14,13.1,17.4,22c-5.4,3.6-10.6,7.7-15.5,12.2C220.8,217.8,220.1,206.4,220.6,194.9z M124.4,324.1
			c9.9,0.3,19.9,2,29.5,5.2c-1.8,3.8-3.6,7.7-5.3,11.6C138.5,338.1,130.8,331.8,124.4,324.1z M144.8,369c3.4-1.6,6.9-2,10.6-0.8
			c4.9,1.5,7.6,7,6.2,11.7c-1.5,5-7,6-11.1,3.9c-3.8-1.9-6.3-5.5-7.9-9.3C143.3,372.7,144.1,370.9,144.8,369z M129.9,414.5
			c0.7,1,2,1.7,3.6,1.4c4.8-1,3.2-8.4-1.5-7.4c-0.3,0.1-0.5,0.1-0.8,0.2c0.3-1.3,0.7-2.6,1-3.9c3.4,1.5,5.9,4.2,7,7.9
			c0.8,2.7,0.5,6-2.7,7c-2.5,0.8-5.1-0.5-7.3-1.9C129.4,416.7,129.6,415.6,129.9,414.5z M142.5,461.9c-0.4,0-0.8,0.2-1.1,0.3
			c-2.7-2.1-4.9-4.6-6.7-7.5c0.1-0.3,0.1-0.7-0.1-1.1c-3-9.3,8-15,14.7-8.6C155.6,451.2,150.7,461.5,142.5,461.9z M208.9,439.2
			c-0.3,0.3-0.6,0.7-0.8,1c-2.1,2.4-4.4,4.8-6.7,7.2c-2.6-0.5-5-1.2-7.3-2.5c-5.4-3.2-2-10,1-13.5c3.2-3.7,7.6-5,11.4-1.3
			C208.8,432.4,209.1,436,208.9,439.2z M238.8,438.5c-6.3,0.6-12.7,0.5-19.1-0.1c2.3-2.7,4.6-5.5,6.8-8.4
			C230.7,432.7,234.8,435.6,238.8,438.5z M237.4,401.7c-0.1,0.3-0.1,0.5-0.1,0.8c-2,2.9-4.1,5.8-6.1,8.6c-2.6-0.1-5-0.2-7.3-1.6
			c-3.2-1.9-3.1-6.5-1.6-9.3C225.1,395.1,239.5,393.2,237.4,401.7z M281.4,328.9c-0.1,0.2-0.1,0.5-0.1,0.7c-0.9,1.6-1.8,3.3-2.7,4.9
			c-7.5,1.9-20.7,3.3-18.3-7.6C262.8,315,286.4,315.4,281.4,328.9z M285.6,321.4c-1.1-2.8-3.2-5.3-6.3-6.6c-7-3-15.5-0.7-20.3,5.2
			c-4.1,5-5.2,12.3,0.3,16.9c4.9,4.1,10.6,4.2,16.2,3.1c-3.8,6.8-7.6,13.6-11.5,20.3c-0.2,0.2-0.4,0.5-0.5,0.8
			c-7.1,12.2-14.5,24.2-22.4,35.8c-1.1-2.3-3.2-4.1-5.9-5.1c-5.1-2-11.1,0.2-14.9,3.7c-3.9,3.6-4.3,9.2-2.4,13.8
			c1.7,4.2,5.9,5.6,10.1,6.1c-4.8,6.5-9.8,12.8-15,18.9c-0.6-3.4-1.9-6.5-4.8-8.7c-5.2-3.9-10.6-2.8-15.4,1.3
			c-4.3,3.7-8.2,11-5.6,16.7c2,4.4,5.8,6.3,10,7.5c-12.3,11.2-27.2,19.8-44.4,16.3c-2.2-0.4-4.2-1.1-6.1-1.9
			c9.7-3.6,13.3-16.2,4.9-24.2c-7.1-6.8-17.8-3.1-21.2,4.4c-2.1-7.2-2.5-15.3-1.9-23c2.4,1.2,5,2.1,7.6,1.7c3.6-0.6,6.8-2.7,7.5-6.5
			c1.4-7.5-3.6-14.6-10.4-17.4c2-6.8,4.4-13.5,6.9-20.2c2.7,4.4,6.8,7.9,12,9.1c6.1,1.5,11.2-2.6,13.5-7.9c2.3-5.3-0.6-12.1-5-15.3
			c-4.2-3-9.1-3.7-13.8-2.7c1.8-4.3,3.6-8.5,5.4-12.7c8.5-19.9,18.3-39.3,29.6-57.8c10.8-17.7,23.3-34.4,37.4-49.7
			c15.6-16.8,35.6-32.3,59.6-32.2c0.6,0,1.1-0.1,1.5-0.3c11.8,1.2,18.5,9.2,22.1,19.3c-6.2-0.8-12,4-12.8,10.8
			c-1,9.3,8,14.8,16.2,14.4c-0.1,3.7-0.3,7.2-0.7,10.4c-1,8.7-3.2,17.3-6.2,25.6c-0.1,0.1-0.1,0.2-0.1,0.4
			C295.4,302,290.6,311.9,285.6,321.4z M346,288.1c-15.1,10.9-31.3,19.8-48.6,26.6c3.4-7,6.4-14.2,9.1-21.5c0,0,0-0.1,0-0.1
			C319.3,288.9,332.6,287.2,346,288.1z"/>
		<path fill="#FDD836" d="M290.4,649.4c-0.8-1.7-2.2-3.2-4-4.3c-6-6.3-12.6-12-19.3-17.1c-21.6-16.3-46.7-27.9-74.2-21.5
			c-0.5,0.1-1,0.3-1.4,0.5c-49,12.9-78.7,59.9-70.2,109.7c8.3,48.4,58.5,80.4,105.8,72.6c47.9-7.9,94.9-51.9,82.9-103.5
			C307,672.3,299.7,660.1,290.4,649.4z M287.5,663.8c0.8,1.2,1.6,2.3,2.4,3.5c-0.4,0.2-1,0.6-1.6,1
			C285.8,669.8,286.4,667,287.5,663.8z M276.4,650.5c2.2,2.2,4.3,4.5,6.2,6.9c-1,1.4-2,2.8-2.9,4.3c-0.9,1.3-1.4,2.8-1.6,4.4
			c-2.4-2.6-5.1-5.1-7.9-7.6c-1.6-1.4-3.2-2.8-4.9-4.2c0.9,0,1.8,0,2.6-0.1c1.8-0.2,3.4-0.9,5.1-1.6
			C274.2,651.7,275.4,651,276.4,650.5z M261.9,643.9c0.2-1,1.1-3.1,1.9-4.8c2.7,2.1,5.4,4.4,7.9,6.7
			C266.9,647.3,261.2,648.3,261.9,643.9z M256.6,639.2c-0.8,1.7-1.2,3.3-1.5,5.2c-0.1,0.6-0.1,1.3,0,1.9c-3.5-2.5-7-4.9-10.7-7
			c1.7-0.7,3.5-1.8,5.3-3.3C254.2,632.5,259.7,632.1,256.6,639.2z M248.4,628.4c-1.2,1-2.5,2.2-3.3,2.9c-9.3,8.1-11.1-6.3-12-9.7
			c-0.1-0.4-0.2-0.7-0.3-1.1C238.1,622.7,243.3,625.4,248.4,628.4z M218,624.6c2.3-6,8.4-2.8,9.6,2.4c0.4,1.7,0.8,3.8,1.6,5.6
			c-3.5-1-7.1-1.8-10.9-2.2c-0.5-0.2-1.1-0.4-1.8-0.4c-0.5,0-1,0-1.5-0.1C216.3,628.4,217.1,626.8,218,624.6z M215.9,641.2
			c17.4,0.9,30.9,12.3,43.8,22.9c12.7,10.4,23.1,21.6,22.3,39c-1.4,32.3-38.2,53.6-67.2,52.9c-31.6-0.8-56.7-27.3-58.3-58.1
			c-1.7-32.6,26.2-58,57.7-56.9C214.8,641,215.3,641.2,215.9,641.2z M214.1,616c-1.7,3.8-5.3,13.1-7.6,5.5c-0.7-2.3-1.7-4.1-3-5.6
			C207.1,615.6,210.6,615.6,214.1,616z M189.9,626.6c3.4-1.1,6.8-2.2,10.2-3.3c0.4,1.6,1,3.2,1.6,4.8c0.3,0.8,0.8,1.6,1.3,2.3
			c-4.7,0.6-9.2,1.7-13.5,3.2C190.2,631.6,190.3,629.2,189.9,626.6z M184,621.2c-0.7,2.1-0.9,4.5-0.4,7.1c0.7,4.3-8,0.4-11.6-1
			C175.8,625,179.8,622.9,184,621.2z M174.2,635.6c1.6,1,3.5,2.1,5.4,2.5c-4.2,2.4-8.2,5.3-11.8,8.5c-0.1-0.2-0.2-0.4-0.3-0.6
			c-0.2-0.2-0.3-0.4-0.5-0.7C162.6,641.4,165,638.1,174.2,635.6z M156.6,639c0.1,2.1,0.6,4.1,1.6,5.8c4.7,8-4,6.6-9.3,4.8
			c-0.4-0.2-0.9-0.3-1.4-0.4C150.2,645.5,153.3,642.1,156.6,639z M147.1,655.9c2.2,0.7,4.4,1.5,6.6,2.4c1.3,0.5,2.4,0.7,3.5,0.8
			c-2.3,3.5-4.3,7.2-6,11c0,0,0-0.1-0.1-0.2c-2.5-4.2-6.5-5.8-10.9-6.3c-0.1-0.3-0.2-0.7-0.5-1C142.2,660.4,144.6,658.1,147.1,655.9
			z M146.8,710.8c0.4,2.1,1,4.2,1.6,6.2c-2.4,0.3-5,1.8-7,2.8c-3-3.7-2.5-6,1.6-6.8C144.4,712.5,145.7,711.8,146.8,710.8z
			 M137.9,693.2c-4.1,1.1-4.8-0.9-2.1-6c2.2-0.5,4.4-0.9,6.5-1.3c1.7-0.3,3.1-1,4.5-1.8c-0.6,3.1-1,6.4-1.2,9.6
			C143.2,693,140.4,693,137.9,693.2z M135.3,670.6c5,1.8,9,8.2,2,9.6c-1.5,0.3-3.5,0.6-5.2,1.2C132.9,677.7,134,674.1,135.3,670.6z
			 M131.8,712.7c-0.9-4.7-1.4-9.4-1.5-14c3.6,1,8,1,10.5,0.9c-0.3,2.6-0.7,5.2-1,7.8c-2.2,1-4.3,2.2-6.2,3.7
			C132.9,711.5,132.3,712.1,131.8,712.7z M148.2,734c-1.7,2-3.6,4.7-4.8,7.6c-2.8-4.3-5.2-8.9-7.1-13.8
			C142.3,727.6,158.2,721.9,148.2,734z M154.8,736.3c0.7-0.8,1.2-1.7,1.7-2.6c2,2.9,4.1,5.7,6.5,8.3c-1.6,0.5-3,1.2-4.5,2.3
			c-1.2,0.9-2.4,1.8-3.6,2.7C148.9,751.3,152.5,739,154.8,736.3z M164.3,763.9c-3.8-2.8-7.3-5.9-10.5-9.2c3.5-1.2,6.9-4.1,9.9-6
			C166.6,746.8,165.1,757.8,164.3,763.9z M173,758.4c0.7-1.3,1.1-2.8,1.3-4.2c0.1-0.7,0.2-1.4,0.2-2.1c3.2,2.3,6.5,4.3,10,6.2
			c-2.8,1.3-5.1,4.3-6.8,6.5C173.1,763.2,171.6,761.1,173,758.4z M179.8,772.9c0.7-0.7,1.3-1.5,1.8-2.3c1.3-3.3,4-4.3,7.9-3.1
			c0,1.8,0.1,3.7,0.3,5.5c0.1,1.4,0.5,2.7,1,3.8C187,775.8,183.4,774.5,179.8,772.9z M203.7,767.9c-0.2,1.1-0.3,2.2-0.2,3.4
			c-5.7,1.6-8.1,0.3-7.4-3.8c-0.1-1.8-0.4-3.3-0.9-4.6c3.1,1.1,6.2,1.9,9.4,2.6C204.2,766.3,203.9,767.2,203.7,767.9z M207.3,779.5
			c1.1-1.4,1.8-3.1,2.5-4.8c0.1-0.3,0.2-8.8,3.9-3c1.7,2.6,2.2,5.4,4.3,7.8C214.4,779.7,210.8,779.7,207.3,779.5z M221.7,773.4
			c-1.4-1.9-1.9-4.3-3-6.3c2.9,0,5.8-0.2,8.7-0.6C226.7,770.5,225.2,778,221.7,773.4z M231.8,777.2
			C231.8,777.2,231.8,777.1,231.8,777.2c0.7-1.9,1.1-3.6,1.3-5.6c1.2-11.3,9-2.3,11-1c0.9,0.6,1.8,1.1,2.6,1.5
			C241.8,774.3,236.8,776,231.8,777.2z M245.8,763.6c-0.5-0.4-1-0.8-1.7-1.2c2.6-1,5.2-2.1,7.8-3.4c0.2,0.6,0.4,1.1,0.6,1.7
			C254.7,764.6,252.5,765.5,245.8,763.6z M260.2,765.3c-0.2-3.1-1.4-6.4-2.2-8.6c-0.8-2.3,9.6-0.4,14.2,0.3
			C268.5,760.1,264.4,762.8,260.2,765.3z M267.6,749.1c0,0-0.1-0.1-0.2-0.1c2-1.6,3.8-3.3,5.6-5
			C273.6,748.1,273.2,751.8,267.6,749.1z M280.8,749.4c0-2.9-1.2-5.9-1.9-8.6c-0.2-0.8,5.7-0.9,10.2-1
			C286.5,743.2,283.8,746.4,280.8,749.4z M283.1,731.8c1.1-1.7,2.1-3.4,3-5.1c0.9,1.4,2,2.7,3.3,3.9
			C292.1,732.9,285.4,732.2,283.1,731.8z M285.7,676c2.5-0.5,6.6-1.7,8.4-0.9c0.3,0.6,0.6,1.2,0.9,1.7c-0.1,0.4-0.2,0.7-0.4,1.2
			c-1,2.3-3,4.4-4.6,6.6C289,681.7,287.5,678.8,285.7,676z M296.4,709.1c-1.5,1-3.1,1.7-4.7,2.5c0.4-1.7,0.7-3.5,0.9-5.2
			c0.3-2.2,0.4-4.4,0.3-6.5c0.1,0.1,0.2,0.2,0.3,0.3C295.3,701.6,304.5,703.7,296.4,709.1z M295.8,728.6c-1.1-1.8-2.4-3.4-3.5-4.4
			c-4.1-3.7,4.2-7.9,8.4-10.2C299.7,719.1,298,724,295.8,728.6z M296.5,686.8c0.5-0.9,1-1.8,1.6-2.6c0.6,1.6,1.1,3.1,1.5,4.7
			c0.8,2.8,1.4,5.6,1.7,8.3C297.3,694.9,293.1,692.8,296.5,686.8z"/>
		<path fill="#FDD836" d="M195.6,663.2c-0.4,2-1,3.4-0.2,5.3c2.9,6.9-2.7,7.9-7.6,9.2c-4.9,1.3-12.7,4.7-15.1,9.6
			c-1.8,3.8-2,6.3-0.1,10.1c0.9,1.7,3.2,3,4.7,4c6.2,4.1,6.2,10.5,6.1,17c-0.1,5.8,1.4,10.3,6.4,13.4c1.4,0.8,3.8,0.8,5.2,0.3
			c8-2.9,13.9,0.1,20.3,4c10.3,6.3,19.8,1.8,22.6-9.4c3.4-13.9,16.1-6.7,26.1-9.4c3.4-0.9,8.3-5.4,8-9.4c-0.6-6.2-3.3-9.3-8.4-12.8
			c-5.9-4-10.9-6.8-11.3-15.4c-0.2-3.4-0.6-6.3-1.6-9.6c-1.1-3.6-4.9-8-8.9-8.1c-5.9-0.2-17.1,9-21.5,5.1c-0.7-0.6-1.4-0.8-2.2-0.8
			c-4.4-3.1-7.7-6.9-13.4-8.1C201.8,657.5,196.3,659.9,195.6,663.2z M217.3,673.4c0.5,0.3,1,0.4,1.5,0.4c4.5,2.2,9,0.9,14-2.1
			c11.8-7.2,12.6,6.7,13.5,13.7c0.5,4.1,2.4,6.9,5.1,9.9c1.1,0.8,2.1,1.6,3.3,2.3c0.9,0.5,1.9,1,2.8,1.6c5.7,1.8,5.3,5.9-1,12.4
			c-6.4,0.2-11.1-1.5-17.2,1c-2.7,1.1-4.2,3.4-5.7,5.7c-1.1,1.8-1.5,4.4-1.9,6.5c-1.7,7.4-10.7,6.7-16.2,3.4c-3.2-2-8-5.3-12.1-5
			c-1.6,0-3.1,0.2-4.6,0.4c-6,2.2-8.6-3.8-8.5-9c0.1-8.5-2.1-14.5-9.5-19c-1.7-4.9-0.5-8,3.5-9.3c3.6-2.1,7.8-3,11.8-3.9
			c2.6-0.6,7.1-2.8,7.7-5.8c0.6-3,1.3-4.9-0.5-7.6c-3.9-5.8,6.2-1.4,8.4,0.6C213.6,671.4,215,672.2,217.3,673.4z"/>
		<path fill="#FDD836" d="M207.9,710c5.4,0.7,7.1,8.8,12.9,7.7c2.4-0.5,3.8-1.5,5.4-3.3c2.4-2.8,1.7-4.3,6.3-6
			c1.5-0.5,3.2-0.9,4.6-1.7c5.3-3,7-7.9,4.8-13.6c-2.4-6.4-9.7-8.1-15.7-9.1c-3.2-3.7-6.6-6-11.7-4.6c-1.6,0.4-3.1,1.9-3.7,3.4
			c-1.5,3.7,1.5,6.6-4.2,7.5C193.2,692.5,195.3,708.5,207.9,710z"/>
		<path fill="#FDD836" d="M1319.8,629C1319.8,628.9,1319.8,628.9,1319.8,629c10.4-20.9,4.3-46.8-14.3-60.7
			c-19-14.3-47.4-11-63.1,6.3c-18,19.8-8.2,46.3,9.9,61.9c19.6,16.9,52.3,16,67.1-6.6C1319.5,629.5,1319.7,629.2,1319.8,629z
			 M1313.1,625.6c-27.8,41.9-99.3-12.9-62.5-48.8c14.1-13.8,37.3-12.4,52.3-1.2C1318,587.1,1320.8,609.3,1313.1,625.6z"/>
		<path fill="#FDD836" d="M1285.7,593.7c-10.4-4-21.4,1.8-25.8,11.3c-4.6,9.9,1.5,20.1,10.4,24.5c10.6,5.2,22.5-1.4,29.5-9.3
			c0.4-0.4,0.6-0.9,0.8-1.3c0.2-0.5,0.4-1,0.4-1.7C1301.1,606.8,1295.7,597.6,1285.7,593.7z M1277.4,623.6
			c-8.6-0.4-12.8-8.5-10.3-16c2.2-6.6,10.2-8.3,16.1-6.7c6.6,1.8,10.1,8.9,10.3,15.3C1289.2,620.8,1283.8,623.8,1277.4,623.6z"/>
		<path fill="#FDD836" d="M1275.8,609.7c-1.6,0.8-2.3,2.4-2.1,4.1c0.6,4.4,5,7.2,9.2,6.6c1.3-0.2,2.4-1.2,2.8-2.5
			c0-0.1,0.1-0.2,0.1-0.3c0.2-0.2,0.3-0.4,0.5-0.6c0.7-1,0.9-2.6,0.3-3.8C1284.5,609.4,1279.8,607.6,1275.8,609.7z"/>
		<path fill="#FDD836" d="M1329.4,610.1c-1.6,4.6,5.5,7.1,7.1,2.5C1338.1,608,1331,605.5,1329.4,610.1z"/>
		<path fill="#FDD836" d="M1327.8,598.7c-1.6,4.6,5.5,7.1,7.1,2.5C1336.5,596.6,1329.4,594.1,1327.8,598.7z"/>
		<path fill="#FDD836" d="M1331.9,588.2c1.6-4.6-5.5-7.1-7.1-2.5S1330.2,592.8,1331.9,588.2z"/>
		<path fill="#FDD836" d="M1319.7,577.1c1.9,0.7,4.1-0.4,4.8-2.3c0-0.1,0.1-0.2,0.1-0.4c0.7-1.9-0.4-4.1-2.3-4.8
			c-1.9-0.7-4.1,0.4-4.8,2.3c0,0.1-0.1,0.2-0.1,0.4C1316.8,574.2,1317.8,576.4,1319.7,577.1z"/>
		<path fill="#FDD836" d="M1312,562.8c1.6-4.6-5.5-7.1-7.1-2.5C1303.2,564.9,1310.4,567.4,1312,562.8z"/>
		<path fill="#FDD836" d="M1293.7,555.6c1.6-4.6-5.5-7.1-7.1-2.5C1285,557.7,1292.1,560.2,1293.7,555.6z"/>
		<path fill="#FDD836" d="M1279.3,555.7c1.6-4.6-5.5-7.1-7.1-2.5C1270.5,557.8,1277.7,560.3,1279.3,555.7z"/>
		<path fill="#FDD836" d="M1265.7,555.7c1.6-4.6-5.5-7.1-7.1-2.5S1264,560.3,1265.7,555.7z"/>
		<path fill="#FDD836" d="M1238.2,568.9c1.6-4.6-5.5-7.1-7.1-2.5S1236.6,573.5,1238.2,568.9z"/>
		<path fill="#FDD836" d="M1230,583.2c1.6-4.6-5.5-7.1-7.1-2.5C1221.3,585.3,1228.4,587.8,1230,583.2z"/>
		<path fill="#FDD836" d="M1226.8,599.2c1.9,0.7,4.1-0.4,4.8-2.3c0-0.1,0.1-0.2,0.1-0.4c0.7-1.9-0.4-4.1-2.3-4.8
			c-1.9-0.7-4.1,0.4-4.8,2.3c0,0.1-0.1,0.2-0.1,0.4C1223.8,596.4,1224.8,598.6,1226.8,599.2z"/>
		<path fill="#FDD836" d="M1231.8,609.8c0.7-1.9-0.4-4.1-2.3-4.8s-4.1,0.4-4.8,2.3c0,0.1-0.1,0.2-0.1,0.4c-0.7,1.9,0.4,4.1,2.3,4.8
			c1.9,0.7,4.1-0.4,4.8-2.3C1231.8,610.1,1231.8,610,1231.8,609.8z"/>
		<path fill="#FDD836" d="M1238.6,625.8c1.6-4.6-5.5-7.1-7.1-2.5S1237,630.4,1238.6,625.8z"/>
		<path fill="#FDD836" d="M1242.7,642.8c1.9,0.7,4.1-0.4,4.8-2.3c0.7-1.9-0.4-4.1-2.3-4.8c-0.1,0-0.2-0.1-0.4-0.1
			c-1.9-0.7-4.1,0.4-4.8,2.3c-0.7,1.9,0.4,4.1,2.3,4.8C1242.4,642.7,1242.5,642.8,1242.7,642.8z"/>
		<path fill="#FDD836" d="M1259.5,649.5c-1.6,4.6,5.5,7.1,7.1,2.5C1268.2,647.5,1261.1,645,1259.5,649.5z"/>
		<path fill="#FDD836" d="M1288.7,650.6c-0.1,0-0.2-0.1-0.4-0.1c-1.9-0.7-4.1,0.4-4.8,2.3c-0.7,1.9,0.4,4.1,2.3,4.8
			c0.1,0,0.2,0.1,0.4,0.1c1.9,0.7,4.1-0.4,4.8-2.3C1291.7,653.5,1290.7,651.3,1288.7,650.6z"/>
		<path fill="#FDD836" d="M1302.1,646.5c-0.2,0.1-0.3,0.2-0.5,0.2c-1.9,0.9-2.7,3.2-1.8,5c0.9,1.9,3.2,2.7,5,1.8
			c0.2-0.1,0.3-0.2,0.5-0.2c1.9-0.9,2.7-3.2,1.8-5C1306.3,646.4,1304,645.6,1302.1,646.5z"/>
		<path fill="#FDD836" d="M1318.8,634.5c-0.3,0-0.6,0.1-0.8,0.1c-2,0.3-3.4,2.5-3,4.4c0.4,2.1,2.4,3.2,4.4,3c0.3,0,0.6-0.1,0.8-0.1
			c2-0.3,3.4-2.5,3-4.4C1322.8,635.4,1320.8,634.3,1318.8,634.5z"/>
		<path fill="#FDD836" d="M1329.2,620.8c-1.9-0.7-4.1,0.4-4.8,2.3c0,0.1-0.1,0.2-0.1,0.4c-0.7,1.9,0.4,4.1,2.3,4.8
			c1.9,0.7,4.1-0.4,4.8-2.3c0-0.1,0.1-0.2,0.1-0.4C1332.2,623.7,1331.1,621.5,1329.2,620.8z"/>
		<path fill="#FDD836" d="M1241.8,654.5c-1.6,4.6,5.5,7.1,7.1,2.5C1250.5,652.4,1243.4,649.9,1241.8,654.5z"/>
		<path fill="#FDD836" d="M1232.2,662.4c-1.6,4.6,5.5,7.1,7.1,2.5C1240.9,660.3,1233.8,657.8,1232.2,662.4z"/>
		<path fill="#FDD836" d="M1214.8,684.6c-1.6,4.6,5.5,7.1,7.1,2.5C1223.5,682.5,1216.4,680,1214.8,684.6z"/>
		<path fill="#FDD836" d="M1211.3,694.6c1.6-4.6-5.5-7.1-7.1-2.5C1202.5,696.7,1209.7,699.2,1211.3,694.6z"/>
		<path fill="#FDD836" d="M1205.1,700.8c-1.6,4.6,5.5,7.1,7.1,2.5C1213.8,698.7,1206.7,696.2,1205.1,700.8z"/>
		<path fill="#FDD836" d="M1311.2,547.9c-30.4-17.7-76.1-8.8-94.7,21.9c-17.2,28.4,12.8,56.1,9.1,84.9
			c-2.3,17.8-21.5,19.2-31.3,30.9c-4.5,5.4-6.4,11.9-5.1,17.8c-7,9-20.3,8.8-30.8,11.3c-9.3,2.2-15.7,7.7-19.7,16.3
			c-5,10.9-3.5,23.8-6.9,35.1c-2.4,7.9-7.8,11.5-14.3,15.7c-4,2.6-7.1,5.4-8.8,9.6c-1.4,0.2-2.7,1.1-3.1,2.5c0,0.1-0.1,0.2-0.1,0.4
			c-0.7,1.9,0.4,4.1,2.3,4.8c1.9,0.7,4.1-0.4,4.8-2.3c0-0.1,0.1-0.2,0.1-0.4c0.3-0.8,0.2-1.7,0-2.5c2.2-6.3,8.4-8.8,13.6-12.3
			c3.4-2.3,6.3-6,8-9.7c5-11.1,4.2-23.4,7.2-35c6.3-24.9,35.6-14.3,49.6-28.7c0.7,1.3,1.7,2.5,2.8,3.7c-2,21.1-26.5,30.3-37.4,46.4
			c-12.3,18.2,1,45.7-16.8,60.9c-1.7-0.5-3.8,0-4.6,2.2c-1.6,4.6,5.5,7.1,7.1,2.5c0.1-0.4,0.2-0.8,0.2-1.2
			c18.7-15.7,6.6-42.7,17.7-61.9c10.2-17.5,34.1-24.7,37.8-45.8c0.1,0.1,0.2,0.1,0.4,0.1c1.5,0.7,2.9,1.2,4.3,1.5c0,0,0,0,0,0
			c12.5,16.6-10.8,32.8-17.4,46.3c-3.1,6.2-4,11.9-3.4,18.7c0.8,9.1,5.2,19.8-2.7,27c-1.6-0.3-3.4,0.3-4.1,2.4
			c-1.6,4.6,5.5,7.1,7.1,2.5c0.2-0.6,0.3-1.1,0.2-1.7c4.6-4.5,6.4-10.6,5.9-17c-0.4-4.7-1.4-9.4-2-14.1c-1.2-8.7,2.6-16,7.5-22.9
			c8.5-11.8,22.3-26.2,14.3-41c5.8-0.7,10.6-4.7,14.6-10.7c7.6-11.7,9.3-25.6,22.8-32.5c9.5-4.8,21.1-3.4,31.3-3.1
			c9.3,0.3,18.1-0.6,27-3.6c15.2-5.2,28.4-17.7,35.4-32C1354.9,603.7,1341,565.2,1311.2,547.9z M1224.5,686.1
			c-3.9,8.3-10.2,28.9-22.9,22.4c-14.6-9.7,2.3-22,11.3-27.1c3.9-2.2,7.4-4.6,10.4-7.4c-0.6,1.9,0.4,4.1,2.3,4.8
			c1.4,0.5,2.8,0.1,3.8-0.8C1227.6,680.4,1225.9,683.1,1224.5,686.1z M1316.2,651.8c-7.1,5.7-15.7,9.3-24.6,10.8
			c-11,1.9-22.2-0.5-33.2,0.5c-11.8,1-21.3,5.6-28.1,14c0.1-0.2,0.2-0.3,0.2-0.5c0-0.1,0.1-0.2,0.1-0.4c0.7-1.9-0.4-4.1-2.3-4.8
			c-0.8-0.3-1.6-0.3-2.3,0c2-2.4,3.8-5.1,5.2-8.3c8.3-18.8-3.9-39.4-9.5-57c-3.7-11.7-4.1-23.4,2.4-34.1
			c4.7-7.7,12.2-13.4,20.2-17.6c-0.1,0.2-0.2,0.4-0.3,0.6c-1.6,4.6,5.5,7.1,7.1,2.5c0.9-2.7-1.1-4.6-3.2-4.9c1-0.5,2-0.9,3-1.3
			c18.5-7.7,40.6-6,57.9,4c16.7,9.7,27.1,27.9,29.5,46.7C1340.6,621.2,1330.9,639.8,1316.2,651.8z"/>
		<path fill="#FDD836" d="M1192.8,224.4c5.2,4.9,14.2,8.8,20.5,3.3c6-5.2,5-13.7,0-19.3c-0.4-0.4-0.8-0.7-1.2-0.9
			c-7-4.7-15.3-8.1-22.7-2.2C1182.3,210.9,1187.8,219.8,1192.8,224.4z M1195.8,209c4.3-1.8,9.2,1.8,12.8,4.2c2.1,2.4,3,6.2,0.9,8.8
			c-3.3,3.9-9.2-0.1-11.9-2.5C1194.5,217,1190,211.4,1195.8,209z"/>
		<path fill="#FDD836" d="M1217.9,325.4c9.6,9.4,19.4-5.1,21.9-13.2c3.5-11.4-3.6-23.6-14.9-26.6c-8.5-2.7-13.4,4.5-15.5,11.8
			C1206.2,308.1,1210.2,317.8,1217.9,325.4z M1223,292.1c7.1,1.8,10.7,7.7,10.8,14.8c0,3.1-1.4,6.2-2.8,8.8c-1.7,4-5,5.2-9.9,3.4
			c-1.5-1.6-2.8-3.3-3.9-5.2C1214.4,309.4,1213.7,289.2,1223,292.1z"/>
		<path fill="#FDD836" d="M1193.2,297.1c-0.8,0.1-1.4,0.4-1.9,0.8c-0.8-0.2-1.6-0.2-2.5,0.4c-10.5,6.1-4.6,28,8,25.2
			c5.6-1.3,6.8-10.6,7-15.1C1204.1,302.4,1199.3,296.4,1193.2,297.1z M1195.2,316.4c-1.3,2.7-4.7-5.1-4.8-5.3
			c-0.9-2.6-0.7-5.6,1.8-7c0.1-0.1,0.2-0.1,0.3-0.2c0.2,0,0.4,0,0.7,0C1199.4,303.2,1196.6,313.3,1195.2,316.4z"/>
		<path fill="#FDD836" d="M1221.7,426.3c5,10.3,15,17.6,26.2,11.8c10.4-5.5,12-20.3,8.3-30.1c-3.8-10.2-14.8-15.7-25.2-15.4
			c-1.5,0-2.4,0.9-2.9,1.9c-0.1,0.1-0.3,0.2-0.4,0.3C1219.9,403.1,1216.4,415.5,1221.7,426.3z M1232.5,399.6
			c0.1-0.1,0.1-0.1,0.2-0.2c14.8,0.6,23.4,15.6,15.7,29c-6.9,11.9-18.3,1.3-21.4-7C1224.1,413.6,1227.1,405.3,1232.5,399.6z"/>
		<path fill="#FDD836" d="M1238.8,421.7c7.3,0,7.3-11.2,0-11.2C1231.6,410.5,1231.6,421.7,1238.8,421.7z"/>
		<path fill="#FDD836" d="M1221.7,308.3c2.2,2.2,5.8,2.2,8,0c2.2-2.2,2.2-5.8,0-8c-0.1-0.1-0.3-0.2-0.4-0.4c-2.2-2.2-5.8-2.2-8,0
			c-2.2,2.2-2.2,5.8,0,8C1221.5,308.1,1221.6,308.2,1221.7,308.3z"/>
		<path fill="#FDD836" d="M1201,219.6c0.1,0,0.2,0,0.4,0c4.4,0,4.4-6.7,0-6.7c-0.1,0-0.2,0-0.4,0
			C1196.6,212.9,1196.6,219.6,1201,219.6z"/>
		<path fill="#FDD836" d="M1143.2,208.9c5,0,9.8,1.1,14.3,3.1c0.1,1.6,0.4,3.3,0.9,5.1c0.5,2,1.4,3.8,2.4,5.5c-3.3,3-7.1,5.4-11.4,7
			c-4.1,1.5-2.3,8,1.8,6.5c5.2-1.9,9.9-4.6,13.9-8.3c1.3,1.3,2.8,2.4,4.3,3.5c-4.2,4.2-8.5,8.5-12.7,12.7c-3.1,3.1,1.7,7.9,4.8,4.8
			c4.6-4.6,9.1-9.1,13.7-13.7c2,1.2,4,2.4,5.9,3.6c-2.4,3.2-4.2,6.6-5.4,10.4c-1.4,4.1,5.2,5.9,6.5,1.8c1-3.1,2.5-5.9,4.5-8.4
			c3.2,2.5,5.7,5.2,7,8.5c-0.1,0-0.2,0.1-0.3,0.1c-3.9,2.1-8.1,3.5-12.5,4.2c-4.3,0.8-2.5,7.3,1.8,6.5c4-0.7,7.9-2,11.6-3.7
			c-0.5,3.3-2,7.2-4.9,11.8c-0.2,0.3-0.4,0.6-0.6,0.9c-3.8-2.2-7.7-4.5-11.5-6.7c-3.8-2.2-7.2,3.6-3.4,5.8c3.6,2.1,7.3,4.2,10.9,6.4
			c-1.3,1.6-2.7,3.2-4.1,4.8c-7.3-2.4-15-1.7-22.1,1.6c-3.9,1.8-0.5,7.7,3.4,5.8c4.4-2.1,9.1-2.5,13.6-1.7c-1.8,2.1-3.6,4.3-5.2,6.6
			c-8.2,2.3-15.4,6.5-21.6,12.3c-3.2,3,1.6,7.8,4.8,4.8c3.6-3.4,7.5-6.1,11.9-8.1c-0.2,0.4-0.3,0.7-0.5,1.1c-0.6,1.6-1,3.3-1.2,4.9
			c-4.6,3.8-10.2,6.1-16.1,6.5c-4.3,0.3-4.3,7.1,0,6.7c5.9-0.5,11.4-2.2,16.3-5.2c0.4,2.2,1.1,4.3,2,6.3
			c-7.7,5.9-13.3,13.6-16.7,22.8c-1.5,4.1,5,5.8,6.5,1.8c2.7-7.5,7.4-13.9,13.6-18.8c0.9,1.3,1.9,2.5,3,3.6c0.5,0.5,1.1,1,1.6,1.5
			c-0.8,4.6-2.7,9-5.5,12.7c-2.6,3.4,2.1,8.2,4.8,4.8c3.1-4,5.3-8.3,6.6-13c1.8,1.2,3.7,2.3,5.7,3.4c-2,4-4.6,7.6-7.7,10.8
			c-3.1,3.1,1.7,7.9,4.8,4.8c3.7-3.7,6.6-7.8,8.8-12.4c2.2,1.2,4.5,2.5,6.5,3.8c0.1,0.1,0.2,0.2,0.4,0.3c-4.2,3.4-7.8,7.3-10.9,11.8
			c-2.5,3.6,3.4,7,5.8,3.4c2.8-4.1,6.3-7.7,10.2-10.7c2.6,3,4.1,6.3,4.8,9.8c-4.6,3.6-9.5,6.6-14.8,9.1c-3.9,1.8-0.5,7.6,3.4,5.8
			c4.2-1.9,8.1-4.3,11.9-6.9c-0.2,2.9-0.7,5.8-1.4,8.7c-4.5-0.6-9-0.3-13.5,1c-4.2,1.2-2.4,7.7,1.8,6.5c3.3-1,6.6-1.3,9.9-0.9
			c-1,3.2-2.1,6.4-3.1,9.4c-0.2,0.6-0.4,1.3-0.6,1.9c-7.4,4-15.4,5.4-24,4.3c-4.3-0.6-4.3,6.2,0,6.7c7.6,1,15.2,0,22.1-2.7
			c-0.4,2.8-0.7,5.5-0.7,8.3c-5.8,4.4-11.7,8.7-17.7,12.8c-3.6,2.4-0.2,8.3,3.4,5.8c5-3.4,9.9-7,14.8-10.7c0.2,1.7,0.5,3.3,0.9,4.9
			c-2.6,5.4-5.1,10.8-7.7,16.2c-1.9,3.9,4,7.3,5.8,3.4c1.7-3.5,3.4-7.1,5-10.6c1.2,2.6,2.7,5,4.4,7.3c-1.4,6.5-4.6,12.4-9.4,17.2
			c-3.1,3.1,1.7,7.9,4.8,4.8c4.6-4.7,7.9-10.2,9.9-16.2c1.6,1.5,3.3,2.9,5.2,4.1c-0.7,9,1,17.6,4.6,25.9c1.7,4,7.6,0.5,5.8-3.4
			c-2.7-6.1-3.9-12.4-3.8-18.9c0.7,0.3,1.4,0.7,2.2,1c1,0.4,1.9,0.7,2.9,1c2.4,5.7,5.4,10.9,9.4,15.8c2.7,3.4,7.5-1.4,4.8-4.8
			c-2.5-3-4.5-6.3-6.2-9.8c2.8,0,5.6-0.3,8.3-0.9c3.7,4.1,6.3,8.9,7.7,14.3c1.1,4.2,7.6,2.4,6.5-1.8c-1.5-5.5-4-10.6-7.5-15
			c2.7-1.2,5.2-2.8,7.5-4.6c2.7,3.6,5.5,7.2,8.2,10.8c2.6,3.4,8.5,0.1,5.8-3.4c-3-4-6-7.9-9.1-11.9c1.5-1.6,2.8-3.3,4-5
			c7.1-2.7,13.5-6.6,19.2-11.6c3.3-2.9-1.5-7.7-4.8-4.8c-3,2.7-6.3,5-9.8,6.9c0.9-2.9,1.5-5.9,1.6-8.9c3-2.3,6.2-4.1,9.9-5.3
			c4.1-1.4,2.4-7.9-1.8-6.5c-2.9,1-5.7,2.3-8.4,3.8c-0.2-2.2-0.6-4.3-1.1-6.5c4.3-3.4,9-6.2,14.3-8c4.1-1.5,2.3-8-1.8-6.5
			c-5.3,1.9-10.2,4.5-14.7,7.8c-0.1-0.2-0.2-0.5-0.3-0.7c5.4-8.7,8.4-18.3,9.1-28.5c0.3-4.3-6.4-4.3-6.7,0
			c-0.6,7.7-2.7,14.9-6.2,21.6c-1.1-1.6-2.2-3.2-3.5-4.6c-0.4-0.5-0.8-0.9-1.2-1.4c1-4.6,3.5-8.7,7-11.9c3.2-3-1.6-7.7-4.8-4.8
			c-3.5,3.3-6,7.1-7.6,11.4c-1.2-1.1-2.3-2.2-3.5-3.3c2.4-6.7,7-12.2,13.3-15.9c3.8-2.2,0.4-8-3.4-5.8c-0.8,0.5-1.6,1-2.4,1.5
			c-0.5-1.6-2-2.9-4.1-2.5c-6.1,1.3-11.6,4.8-15.3,9.7c-1.5-2.2-2.7-4.5-3.4-6.9c3.3-3.8,7.9-6.3,12.9-6.8c4.3-0.4,4.3-7.2,0-6.7
			c-5.2,0.5-9.9,2.3-13.8,5.3c0.1-1.2,0.3-2.4,0.7-3.7c0.4-1.5,1-2.9,1.7-4.2c5.2-1.1,10.4-1.1,15.7,0.1c4.2,1,6-5.5,1.8-6.5
			c-4.2-1-8.3-1.4-12.5-1.1c1.4-1.8,2.9-3.5,4.4-5.2c7.5-2.5,15.6-2.2,23,1.2c3.9,1.8,7.4-4,3.4-5.8c-6.6-3-13.5-4.1-20.2-3.4
			c0.7-1.2,1.3-2.3,1.9-3.5c4.8-2.2,9.9-2.9,15.2-2.5c4.3,0.4,4.3-6.4,0-6.7c-4.4-0.4-8.8,0-12.9,1.2c0.2-1.5,0.3-2.9,0.2-4.4
			c5.4-5,8.5-12,8.1-19.6c-0.2-4.3-7-4.4-6.7,0c0.2,3.9-0.8,7.6-2.7,10.8c-0.5-1.7-1.3-3.3-2.2-4.9c1.6-6.3,4.9-11.7,9.8-16.1
			c3.2-2.9-1.6-7.7-4.8-4.8c-4.4,4-7.8,8.9-10,14.3c-0.7-0.8-1.5-1.6-2.2-2.3c0.2-7.1,3.2-13.4,8.7-18.1c3.3-2.9-1.5-7.6-4.8-4.8
			c-5.2,4.5-8.7,10.6-10,17.2c-0.9-0.8-1.8-1.6-2.7-2.4c3.5-6.8,4.4-14.5,2.8-22.1c-0.5-2.3-2.6-2.8-4.3-2.2
			c-0.2-2.5-3.5-4.6-5.7-2.3c-3.3,3.4-5.7,7.3-7.2,11.6c-1.5-2.3-2.6-4.6-3.2-7.1c3.9-3.1,8.4-5.2,13.3-6.3c4.2-1,2.4-7.5-1.8-6.5
			c-4.1,0.9-8,2.5-11.5,4.6c0.4-1.5,1-3.1,1.8-4.7c2.5-1.3,5.2-2,8-2c4.4,0,4.4-6.8,0-6.7c-0.7,0-1.5,0.1-2.2,0.1
			c1-1.8,1.9-3.5,2.5-5.3c3,1.4,5.9,3.2,8.6,5.3c3.4,2.7,8.2-2.1,4.8-4.8c-3.7-2.9-7.7-5.4-12-7.3c0.1-2.4,0-4.8-0.5-7.1
			c4.8-1.1,9.2-3.2,13.2-6.4c3.4-2.7-1.4-7.5-4.8-4.8c-3.2,2.5-6.8,4.1-10.7,4.8c-2.4-5-6.1-9.6-10.5-13.4c2.3-1.1,4.5-2.3,6.6-3.7
			c3.6-2.4,0.2-8.3-3.4-5.8c-3,2.1-6.2,3.7-9.6,4.9c-1.5-0.9-3.1-1.7-4.6-2.5c3.8-3.8,8-7,12.7-9.7c3.8-2.2,0.4-8-3.4-5.8
			c-6,3.5-11.5,7.9-16.2,13c-0.2,0-0.3-0.1-0.5-0.1c-2.3-0.6-4.8-1-7.3-1.2c1.7-3.2,4-6.1,6.8-8.5c3.3-2.9-1.5-7.6-4.8-4.8
			c-4.2,3.7-7.4,8.2-9.5,13.3c-2,0.2-3.9,0.5-5.9,0.9c0-0.8-0.3-1.6-1-2.2c-2.1-1.8-3.3-3.8-3.9-6.5c-0.4-1.8-2.5-2.8-4.2-2.4
			c-1.9,0.5-2.7,2.4-2.4,4.2c0.7,3.3,2.4,6.3,4.8,8.7c-4.3,1.6-8.3,3.8-11.5,6.6c-3.7-3.1-6.6-7-8.5-11.4c-1.7-4-7.5-0.6-5.8,3.4
			c2.2,5.2,5.6,9.6,9.9,13.2c-1.4,2.1-2.4,4.5-2.9,7.1c-4.7-1.8-9.6-2.7-14.7-2.8C1138.9,202.1,1138.9,208.8,1143.2,208.9z
			 M1256.5,365.4c-2.7,2.9-5,6.2-6.6,9.9c-0.8-0.8-1.5-1.6-2.2-2.4C1249.8,369.5,1252.8,366.9,1256.5,365.4z M1238.1,256.4
			C1238.1,256.4,1238.1,256.4,1238.1,256.4c1.2,5.5,0.6,10.7-1.5,15.6c-1.4-1.3-2.7-2.5-3.9-3.8
			C1233.4,263.8,1235.2,259.8,1238.1,256.4z M1192.7,194.4c15.8-0.3,40.3,15.8,29,33.8c-15.8,19.8-7.2,41.4,11,56.1
			c13,10.4,23,21.3,12,37.2c-6.6,9.5-15.1,17.1-17.1,29.1c-1.9,11.6,5,22.1,12.3,30.3c11.2,12.7,24.3,20.6,25.3,39.3
			c1,18.8-17.1,31.7-34.4,26.7c-21.1-6.1-22.5-31.2-17.3-48.4c4-13.4,8.6-25.1,6.1-39.3c-1.7-9.9-10.2-16.9-18.2-22
			c-9.1-5.8-22.1-9.7-26-20.8c-5.5-15.9,18-31.9,25.5-43.7c5.8-9.2,6.7-20.5,1.8-30.1c-4.4-8.9-15.3-13.7-23.3-18.6
			c-5.4-3.3-10.2-7-10.9-13.8C1167.4,197.9,1184.1,194.6,1192.7,194.4z"/>
	</g>
</g>
</svg>
